<?xml version="1.0" encoding="utf-8"?>
<!-- Generator: Adobe Illustrator 25.4.1, SVG Export Plug-In . SVG Version: 6.00 Build 0)  -->
<svg version="1.1" id="Layer_1" xmlns="http://www.w3.org/2000/svg" xmlns:xlink="http://www.w3.org/1999/xlink" x="0px" y="0px"
	 viewBox="0 0 595.28 581.89" style="enable-background:new 0 0 595.28 581.89;" xml:space="preserve">
<style type="text/css">
	.st0{fill:#FFFFFF;}
</style>
<g>
	<path class="st0" d="M294.62,3.92c0.28,0.41,0.72,0.34,1.12,0.33c4.62-0.12,9.24,0.13,13.85,0.43c6.34,0.41,12.67,0.94,19,1.63
		c9.4,1.02,18.73,2.43,27.99,4.28c15.2,3.04,30.06,7.24,44.55,12.78c9.02,3.45,17.84,7.34,26.43,11.75
		c5.04,2.59,10.2,5.01,14.79,8.39c4.38,3.23,7.87,7.23,8.85,12.8c1.7,9.73-4.71,19.75-14.83,21.39c-5.52,0.9-10.59-0.4-15.41-2.83
		c-12.17-6.14-24.44-12.05-37.23-16.81c-12.45-4.63-25.17-8.24-38.24-10.66c-6.63-1.23-13.28-2.31-19.97-3.02
		c-5.66-0.6-11.35-0.96-17.05-1.21c-4.21-0.19-8.41-0.27-12.6-0.23c-7.44,0.08-14.86,0.59-22.28,1.33
		c-12.71,1.27-25.2,3.59-37.57,6.71c-1.06,0.27-2.05,0.89-3.21,0.73c-0.25-0.13-0.49-0.33-0.75-0.37c-3.25-0.61-6.48-0.22-9.75-0.07
		c-5.47,0.25-10.9,0.79-16.34,1.43c-6.54,0.77-12.98,2.02-19.38,3.46C175.1,58.74,163.98,62.4,153.15,67
		c-8.57,3.64-16.84,7.83-24.82,12.61c-7.16,4.29-13.99,9.06-20.62,14.14c-6.5,4.97-12.54,10.47-18.34,16.19
		c-3.51,3.46-6.9,7.1-10.09,10.92c-4.3,5.15-8.48,10.37-12.31,15.87c-7.62,10.96-14.15,22.53-19.49,34.77
		c-4.12,9.43-7.53,19.1-10.13,29.05c-2.25,8.61-3.88,17.34-5.04,26.17c-0.82,6.24-1.3,12.49-1.59,18.75
		c-0.23,4.82-0.14,9.68,0.18,14.53c0.37,5.52,0.8,11.01,1.45,16.5c0.84,7.17,2.19,14.24,3.82,21.26c1.85,7.96,4.23,15.76,7.09,23.42
		c3.26,8.71,7.06,17.16,11.5,25.33c0.26,0.47,0.48,0.96,1.13,0.93c0.77,2.78,1.54,5.57,2.31,8.35c2.49,8.95,5.56,17.7,9.09,26.3
		c5.87,14.32,13.22,27.85,21.48,40.93c7.61,12.04,16.25,23.29,25.38,34.2c2.78,3.32,5.87,6.35,8.7,9.61
		c3.38,3.88,5.56,8.32,5.66,13.45c0.09,4.51-1.68,8.47-4.59,12.01c-7.71,9.34-21.7,7.89-29,0.58c-12.9-12.92-24.5-26.84-34.56-42.06
		c-8.62-13.05-16.33-26.62-22.98-40.77c-8.29-17.66-14.76-35.97-19.23-54.97c-1.91-8.1-3.59-16.26-4.67-24.52
		c-0.87-6.62-1.57-13.27-1.91-19.96c-0.15-2.97-0.16-5.94-0.27-8.91c-0.02-0.45,0.15-0.95-0.35-1.28c0-3.86,0-7.73,0-11.59
		c0.61-0.51,0.3-1.2,0.34-1.81c0.15-2.73,0.11-5.47,0.27-8.21c0.33-5.51,0.89-10.99,1.45-16.48c0.68-6.69,1.68-13.34,2.95-19.93
		c2.46-12.73,5.46-25.35,9.27-37.77c4.42-14.41,9.72-28.48,16.22-42.08c6.79-14.21,14.73-27.74,23.92-40.55
		c6.18-8.61,12.8-16.86,19.99-24.64c3.96-4.28,7.93-8.55,12.28-12.47c4.41-3.97,8.78-7.99,13.31-11.83
		c6.79-5.75,13.93-11.03,21.25-16.07c11.49-7.91,23.55-14.87,36.01-21.13c7.35-3.69,14.85-7.07,22.45-10.21
		c12.48-5.16,25.19-9.64,38.24-13.11c10.27-2.73,20.69-4.72,31.22-6.13c6.42-0.86,12.86-1.47,19.33-1.87
		c3.63-0.23,7.25-0.19,10.87-0.3c0.5-0.01,1.07,0.18,1.47-0.33C292.74,3.92,293.68,3.92,294.62,3.92z"/>
	<path class="st0" d="M310.05,466.26c16.5-0.97,32.53-4.28,48.06-9.92c9.07-3.29,17.88-7.18,26.24-12.05
		c7.72-4.49,15.49-5.03,23.02,0.49c4.46,3.27,6.72,7.77,7.12,13.29c0.67,9.28-4.1,15.14-11.74,19.43
		c-12.13,6.8-24.76,12.44-38,16.65c-11.69,3.72-23.61,6.44-35.75,8.32c-13.59,2.1-27.25,2.46-40.92,1.89
		c-13.14-0.55-26.17-2.26-39.01-5.35c-13.9-3.34-27.35-7.92-40.35-13.85c-14.9-6.79-28.8-15.25-41.76-25.22
		c-5.58-4.3-10.87-8.95-16.03-13.76c-11.04-10.3-20.7-21.73-29.29-34.11c-5.22-7.52-9.84-15.37-14.05-23.5
		c-7.97-15.36-13.83-31.49-17.75-48.31c-2.06-8.83-3.51-17.77-4.4-26.81c-0.94-9.55-1.57-19.1-1.27-28.68
		c0.35-11.2,1.54-22.31,3.64-33.34c4.13-21.69,11.7-42.15,21.95-61.66c2.58-4.9,5.47-9.51,10.28-12.64
		c11.16-7.24,27,0.18,28.77,13.37c0.8,5.95-1.18,11.04-3.92,16c-3.85,6.97-6.84,14.32-9.81,21.68c-3.72,9.22-6.43,18.77-8.64,28.45
		c-1.08,4.73-1.86,9.54-2.28,14.39c-0.16,1.84-0.5,3.67-0.76,5.51c-0.75-0.03-0.97,0.56-1.21,1.09c-1.12,2.5-2.26,5-3.31,7.53
		c-3.95,9.5-6.86,19.31-8.67,29.45c-1.25,6.99-1.93,14.05-2.19,21.14c-0.24,6.53,0.23,13.03,0.96,19.54
		c0.63,5.56,1.54,11.04,2.82,16.47c3.23,13.66,8.32,26.59,15.4,38.73c5.91,10.12,13.02,19.32,21.15,27.75
		c3.53,3.66,7.36,6.98,11.26,10.23c7.28,6.08,15.13,11.31,23.5,15.75c11.25,5.96,23.1,10.33,35.55,13.07
		c9.12,2.01,18.33,3.24,27.67,3.3c4.08,0.03,8.16,0.04,12.26-0.24c4.77-0.32,9.52-0.8,14.21-1.61c11.82-2.02,23.25-5.46,34.22-10.33
		C308.15,467.91,309.46,467.56,310.05,466.26z"/>
	<path class="st0" d="M385.62,523.78c8.54-3.4,17.02-6.95,25.19-11.17c13.32-6.88,26.04-14.72,37.92-23.9
		c6.01-4.65,11.85-9.48,17.47-14.6c4.89-4.45,9.61-9.08,14.1-13.91c9.99-10.72,19.03-22.22,26.94-34.58
		c3.67-5.74,7.11-11.61,10.35-17.62c7.31-13.56,13.16-27.71,17.83-42.37c3.04-9.55,5.42-19.28,7.26-29.12
		c1.12-6,2.05-12.05,2.6-18.16c0.38-4.21,1-8.4,1.02-12.64c0-0.29,0.02-0.59,0.29-0.78c0.8,0.04,1.24,0.62,1.65,1.18
		c6.52,9.02,12.07,18.62,16.21,28.95c3.88,9.69,7.06,19.61,8.66,29.97c0.12,0.8-0.16,1.98,0.98,2.46
		c-2.8,10.63-6.45,20.96-10.55,31.15c-3.03,7.52-6.35,14.91-10.02,22.13c-7.49,14.71-16.14,28.72-26.1,41.89
		c-4.22,5.58-8.66,11-13.29,16.26c-6.17,7.01-12.57,13.8-19.33,20.22c-4.92,4.67-10.1,9.07-15.36,13.38
		c-7.75,6.37-15.89,12.18-24.22,17.75c-0.19,0.12-0.43,0.17-0.64,0.25c-5.22,0.89-10.49,1.52-15.76,1.68
		c-8.87,0.27-17.72,0.04-26.54-1.3c-8.67-1.31-17.16-3.25-25.46-6.04C386.26,524.68,385.68,524.52,385.62,523.78z"/>
	<path class="st0" d="M356.49,85.05c6.43,1.54,12.64,3.77,18.8,6.13c7.52,2.9,14.87,6.2,22.02,9.93
		c10.71,5.59,20.88,12.04,30.5,19.34c4.49,3.4,8.69,7.17,12.93,10.89c2.8,2.45,5.45,5.06,8.23,7.53c2.91,2.58,5.36,5.67,8.05,8.5
		c2.57,2.71,4.94,5.57,7.3,8.45c0.51,0.63,1,1.28,1.49,1.93c-0.1,0.62,0.18,1.14,0.44,1.67c4.66,9.63,8.29,19.63,10.66,30.08
		c1.69,7.44,2.86,14.97,3.21,22.57c0.3,6.63,0.21,13.29-0.56,19.93c-0.67,5.79-1.57,11.52-2.92,17.16
		c-1.2,4.97-2.28,9.99-4.59,14.62c-1.03-4.96-1.88-9.97-3.14-14.87c-2.34-9.12-5.37-18.02-9.14-26.65
		c-4.85-11.1-10.51-21.75-17.5-31.67c-3.53-5.02-7.3-9.84-11.34-14.47c-3.49-4-7.07-7.92-10.95-11.54
		c-4.75-4.43-9.71-8.61-14.86-12.57c-6.25-4.8-12.79-9.14-19.61-13.03c-6.42-3.67-13.1-6.87-19.95-9.71
		c-9.29-3.85-18.82-6.91-28.62-9.17c-5-1.15-10.04-2.06-15.13-2.73c-5.58-0.74-11.17-1.19-16.79-1.49c-3.44-0.18-6.89-0.4-10.3-0.19
		c-6.29,0.37-12.6,0.66-18.86,1.6c-6.46,0.96-12.85,2.19-19.21,3.64c-0.07-0.71,0.26-1.24,0.78-1.67c2.34-1.92,4.63-3.9,7.02-5.75
		c5.63-4.35,11.51-8.31,17.76-11.76c7.54-4.16,15.38-7.63,23.56-10.23c9.32-2.96,18.86-4.97,28.64-5.81
		c6.69-0.57,13.35-1.01,20.05-0.31C355.15,85.48,355.86,85.46,356.49,85.05z"/>
	<path class="st0" d="M55.91,347.45c-0.66,0.03-0.88-0.46-1.13-0.93c-4.44-8.17-8.24-16.63-11.5-25.33
		c-2.86-7.65-5.24-15.46-7.09-23.42c-1.63-7.02-2.98-14.09-3.82-21.26c-0.65-5.49-1.08-10.98-1.45-16.5
		c-0.32-4.86-0.41-9.71-0.18-14.53c0.3-6.26,0.78-12.51,1.59-18.75c1.16-8.84,2.79-17.57,5.04-26.17
		c2.59-9.95,6.01-19.62,10.13-29.05c5.35-12.24,11.87-23.82,19.49-34.77c3.83-5.5,8.01-10.72,12.31-15.87
		c3.18-3.82,6.57-7.46,10.09-10.92c5.8-5.72,11.83-11.22,18.34-16.19c6.64-5.08,13.46-9.85,20.62-14.14
		c7.98-4.78,16.25-8.97,24.82-12.61c10.83-4.6,21.95-8.26,33.41-10.84c6.4-1.44,12.85-2.69,19.38-3.46
		c5.43-0.64,10.86-1.19,16.34-1.43c3.26-0.15,6.5-0.53,9.75,0.07c0.26,0.05,0.5,0.25,0.75,0.37c-5.6,1.78-11.25,3.43-16.8,5.37
		c-7.59,2.66-15,5.77-22.3,9.15c-12.97,6-25.26,13.15-37.04,21.22c-5.58,3.82-10.94,7.94-16.15,12.27
		c-7.13,5.93-14.03,12.1-20.45,18.78c-7.64,7.96-14.74,16.38-21.27,25.29c-8.82,12.03-16.47,24.75-22.93,38.18
		c-3.78,7.86-7.1,15.93-10.02,24.16c-3.41,9.62-6.28,19.4-8.65,29.32c-1.63,6.83-2.96,13.73-4.09,20.67
		c-1,6.16-1.67,12.36-2.34,18.55c-0.22,2.06-0.33,4.17-0.45,6.25c-0.44,7.35-0.52,14.72-0.27,22.07c0.19,5.49,0.67,10.98,1.23,16.46
		C52.23,328.9,54.04,338.17,55.91,347.45z"/>
	<path class="st0" d="M310.05,466.26c-0.59,1.3-1.9,1.65-3.03,2.15c-10.97,4.87-22.4,8.31-34.22,10.33
		c-4.68,0.8-9.43,1.28-14.21,1.61c-4.1,0.28-8.18,0.27-12.26,0.24c-9.34-0.07-18.55-1.29-27.67-3.3
		c-12.45-2.74-24.3-7.11-35.55-13.07c-8.37-4.43-16.22-9.67-23.5-15.75c-3.9-3.25-7.74-6.58-11.26-10.23
		c-8.13-8.42-15.24-17.63-21.15-27.75c-7.09-12.13-12.17-25.06-15.4-38.73c-1.28-5.43-2.2-10.92-2.82-16.47
		c-0.73-6.5-1.2-13.01-0.96-19.54c0.26-7.09,0.94-14.14,2.19-21.14c1.81-10.14,4.72-19.95,8.67-29.45c1.05-2.53,2.2-5.03,3.31-7.53
		c0.24-0.53,0.45-1.12,1.21-1.09c-0.62,4.51-0.49,9.08-0.46,13.58c0.03,3.74-0.16,7.53,0.38,11.31c0.4,2.85,0.46,5.77,0.8,8.65
		c0.62,5.28,1.43,10.51,2.5,15.71c1.78,8.65,4.32,17.09,7.33,25.39c3.93,10.85,8.98,21.15,14.92,31.04
		c4.36,7.25,9.14,14.21,14.54,20.69c4.69,5.62,9.65,11.02,15.08,16c8.19,7.51,16.97,14.19,26.3,20.16
		c8.39,5.37,17.17,10,26.36,13.89c8.63,3.66,17.47,6.64,26.57,8.81c6.22,1.48,12.53,2.59,18.89,3.44
		c9.86,1.31,19.74,1.39,29.64,1.38C307.54,466.61,308.75,465.99,310.05,466.26z"/>
	<path class="st0" d="M304.43,188.64c-2.81,0.01-5.62-0.02-8.43,0.05c-9.11,0.21-18.03,1.63-26.78,4.2
		c-6.17,1.81-12.13,4.13-17.82,7.09c-6.69,3.47-12.89,7.65-18.72,12.46c-7.82,6.46-14.35,14.01-19.87,22.44
		c-7.29,11.11-12.25,23.21-14.84,36.26c-0.87,4.36-1.41,8.76-1.81,13.19c-0.36,3.91-0.41,7.82-0.22,11.7
		c0.36,7.2,1.42,14.34,3.3,21.32c1.68,6.26,3.93,12.32,6.76,18.15c-2.03,0.06-3.2-1.53-4.64-2.53
		c-7.18-5.02-13.33-11.17-18.73-18.02c-6.9-8.75-11.86-18.54-14.94-29.28c-2.04-7.14-3.23-14.37-3.55-21.81
		c-0.12-2.75,0.14-5.45,0.09-8.17c-0.04-2.22,0.45-4.4,0.58-6.59c0.09-1.51,1.11-3.03,0.1-4.56c1.23-4.17,2.9-8.18,4.73-12.11
		c3.48-7.47,7.36-14.72,12.13-21.47c3.99-5.65,8.26-11.05,12.99-16.12c2.59-2.78,5.19-5.51,8.1-7.94c1.36,0.2,2.1-0.9,3.05-1.5
		c6.83-4.36,14.16-7.59,21.93-9.89c7.39-2.19,14.93-3.53,22.65-3.65c3.32-0.05,6.63-0.07,9.96,0.24c4.59,0.43,9.11,1.1,13.57,2.17
		c9.9,2.37,19.12,6.36,27.67,11.88C302.71,186.82,303.96,187.32,304.43,188.64z"/>
	<path class="st0" d="M307.65,392.85c9.9-0.43,19.41-2.58,28.59-6.3c9-3.65,17.38-8.38,25.04-14.31
		c6.54-5.06,12.4-10.83,17.55-17.36c4.89-6.21,9.09-12.81,12.49-19.92c3.76-7.88,6.35-16.15,8.05-24.72
		c1.63-8.2,1.96-16.47,1.7-24.78c-0.11-3.46-0.71-6.9-1.08-10.35c0.93-0.16,1.55,0.47,2.19,0.94c5.57,4.07,10.62,8.68,14.91,14.11
		c8.15,10.32,13.25,21.95,15.36,34.92c0.36,2.2,0.12,4.5,1.07,6.6c-1.27,5.24-3.27,10.23-5.4,15.16
		c-3.88,8.99-8.62,17.53-14.33,25.51c-3.78,5.28-7.89,10.27-12.31,15.06c-7.84,8.5-16.71,15.73-26.37,22.04
		c-2.27,1.49-4.54,3-7.03,4.11c-0.61-0.7-1.45-0.44-2.14-0.36c-4.3,0.5-8.58,0.34-12.89,0.02c-6.31-0.47-12.42-1.77-18.38-3.77
		c-8.47-2.84-16.2-7.08-23.2-12.64C310.02,395.65,308.42,394.65,307.65,392.85z"/>
	<path class="st0" d="M472.05,263.79c2.3-4.63,3.39-9.65,4.59-14.62c1.36-5.64,2.26-11.38,2.92-17.16
		c0.76-6.64,0.86-13.3,0.56-19.93c-0.35-7.6-1.52-15.13-3.21-22.57c-2.37-10.45-6-20.45-10.66-30.08c-0.26-0.53-0.54-1.04-0.44-1.67
		c2.93,3.38,5.48,7.03,8.06,10.68c6.36,9.02,11.91,18.51,16.73,28.42c8.14,16.72,13.77,34.28,17.36,52.51
		c1.78,9.04,3.01,18.16,3.58,27.37c0.4,6.48,0.79,12.95,0.56,19.43c-0.5,14.19-2.13,28.24-5.33,42.09
		c-1.16,5.02-2.27,10.01-5.37,14.32c-4.45,6.18-11.59,9.09-18.72,7.45c-7.63-1.75-13.09-7.5-14.45-14.99
		c-0.74-4.09,0-8.01,0.93-11.94c1.9-8.06,3.31-16.21,4.08-24.46c0.4-4.3,0.59-8.6,0.7-12.92c0.06-2.2,0.45-4.42,0.27-6.62
		c-0.5-6.13-0.33-12.31-1.36-18.41C472.45,268.41,472.31,266.09,472.05,263.79z"/>
	<path class="st0" d="M385.62,523.78c0.06,0.74,0.65,0.9,1.21,1.09c8.3,2.79,16.79,4.73,25.46,6.04c8.82,1.34,17.67,1.56,26.54,1.3
		c5.28-0.16,10.54-0.79,15.76-1.68c-2.8,2.38-6.07,4.04-9.18,5.94c-7.91,4.83-16.12,9.11-24.48,13.1
		c-14.84,7.06-30.25,12.59-46.02,17.15c-10.49,3.04-21.17,5.21-31.95,6.88c-7.2,1.11-14.43,1.98-21.7,2.62
		c-7.39,0.65-14.75,1.62-22.18,1.31c-5.56-0.23-10.71-1.93-15.01-5.56c-2.79-2.35-4.24-5.53-4.69-9.14
		c-0.61-4.86-0.28-9.61,2.4-13.87c2.96-4.72,7.5-7.06,12.88-7.9c8.19-1.29,16.44-1.9,24.7-2.52c11.27-0.84,22.43-2.47,33.45-5.08
		c8.98-2.13,17.85-4.61,26.6-7.53C381.46,525.22,383.54,524.49,385.62,523.78z"/>
	<path class="st0" d="M574.09,367.5c-1.14-0.48-0.85-1.65-0.98-2.46c-1.61-10.37-4.79-20.28-8.66-29.97
		c-4.14-10.34-9.69-19.93-16.21-28.95c-0.41-0.56-0.85-1.14-1.65-1.18c-0.23-5.55,0.58-11.08,0.35-16.63
		c-0.27-6.62-0.55-13.25-1.05-19.86c-1.07-14.15-4.04-27.99-7.11-41.81c-1.36-6.1-1.1-12.09,3.11-17.3
		c4.63-5.74,10.77-8.08,17.87-7.06c7.7,1.11,12.67,5.82,14.95,13.3c2.92,9.61,5.04,19.41,6.58,29.32c1,6.45,1.7,12.94,2.29,19.44
		c1.06,11.53,1.71,23.08,1.27,34.65c-0.23,6.11-0.69,12.21-1.25,18.31c-0.54,5.9-1.37,11.75-2.25,17.59
		c-1.01,6.69-2.35,13.33-3.92,19.92C576.42,359.06,575.51,363.35,574.09,367.5z"/>
	<path class="st0" d="M356.49,85.05c-0.63,0.41-1.33,0.42-2.03,0.35c-6.7-0.7-13.36-0.26-20.05,0.31
		c-9.79,0.83-19.32,2.84-28.64,5.81c-8.18,2.6-16.02,6.07-23.56,10.23c-6.25,3.45-12.13,7.41-17.76,11.76
		c-2.39,1.85-4.68,3.83-7.02,5.75c-0.53,0.43-0.85,0.96-0.78,1.67c-5.61,1.67-11.25,3.2-16.77,5.18
		c-6.03,2.18-11.98,4.53-17.76,7.31c-4.16,2.01-8.25,4.14-12.4,6.17c-7.68,3.74-16.52,2.52-22.07-3.24
		c-8.23-8.55-8.48-21.39,2.15-29.38c6.38-4.8,13.6-8.23,20.86-11.48c11.38-5.1,23.2-8.97,35.32-11.9
		c9.87-2.39,19.85-4.15,29.96-5.22c9.89-1.05,19.8-1.71,29.73-1.31c5.5,0.22,11.01,0.62,16.5,1.23c7.5,0.84,14.92,2.05,22.28,3.63
		C348.5,82.77,352.58,83.59,356.49,85.05z"/>
	<path class="st0" d="M304.43,188.64c-0.47-1.32-1.72-1.82-2.75-2.49c-8.55-5.52-17.77-9.51-27.67-11.88
		c-4.46-1.07-8.99-1.74-13.57-2.17c-3.33-0.31-6.65-0.3-9.96-0.24c-7.71,0.13-15.25,1.46-22.65,3.65
		c-7.76,2.3-15.09,5.53-21.93,9.89c-0.95,0.6-1.69,1.71-3.05,1.5c2.25-2.63,5.06-4.63,7.74-6.75c8.38-6.62,17.42-12.21,27.09-16.78
		c10.82-5.11,22.18-8.51,33.88-10.87c10.94-2.21,22-2.89,33.11-2.37c9.67,0.45,19.31,1.57,28.65,4.24
		c7.89,2.26,13.53,7.01,15.46,15.35c2.21,9.58-4.85,20.21-14.5,22.13c-4.58,0.91-8.98,0.17-13.41-0.77
		c-4.93-1.05-9.9-1.88-14.96-2.02C305.36,189.06,304.87,188.96,304.43,188.64z"/>
	<path class="st0" d="M164.9,244.54c1.01,1.53-0.01,3.06-0.1,4.56c-0.13,2.19-0.62,4.37-0.58,6.59c0.04,2.72-0.21,5.42-0.09,8.17
		c0.32,7.43,1.51,14.67,3.55,21.81c3.08,10.74,8.04,20.52,14.94,29.28c5.4,6.85,11.55,13,18.73,18.02c1.43,1,2.61,2.59,4.64,2.53
		c1.88,3.8,4.15,7.43,5.37,11.53c1.71,5.75,0.34,11.01-2.86,15.81c-5.76,8.62-17.96,10.85-26.37,4.96
		c-3.48-2.44-5.84-5.83-7.89-9.48c-7.36-13.13-11.95-27.2-14.64-41.97c-1.97-10.79-2.83-21.66-2.35-32.59
		c0.35-7.99,1.37-15.94,3.14-23.76c1.13-5.04,2.54-9.99,4.18-14.89C164.62,244.91,164.78,244.73,164.9,244.54z"/>
	<path class="st0" d="M433.51,331.67c-0.95-2.1-0.72-4.4-1.07-6.6c-2.11-12.97-7.21-24.6-15.36-34.92
		c-4.29-5.43-9.34-10.04-14.91-14.11c-0.63-0.46-1.26-1.1-2.19-0.94c-0.97-5.27-2.72-10.42-2.72-15.84
		c-0.01-10.64,9.38-19.73,19.95-18.82c8.13,0.7,15.17,5.46,17.61,15.15c2.16,8.55,3.79,17.17,4.32,26
		c0.35,5.8,0.41,11.59,0.16,17.36c-0.47,10.98-2.4,21.75-5.51,32.31C433.76,331.42,433.61,331.54,433.51,331.67z"/>
	<path class="st0" d="M307.65,392.85c0.76,1.8,2.37,2.8,3.81,3.95c7,5.56,14.73,9.8,23.2,12.64c5.96,2,12.08,3.3,18.38,3.77
		c4.31,0.32,8.59,0.48,12.89-0.02c0.69-0.08,1.53-0.34,2.14,0.36c-1.83,1.68-4.18,2.5-6.34,3.57c-4.32,2.14-8.72,4.15-13.3,5.73
		c-9.89,3.41-19.92,6.19-30.32,7.59c-5.84,0.78-11.68,1.61-17.57,1.6c-5.42,0-10.5-1.23-14.77-4.95c-3.57-3.11-5.65-7.02-6.18-11.61
		c-0.61-5.22,0.53-10.07,3.91-14.31c3.18-3.99,7.52-5.87,12.27-6.87C299.67,393.47,303.67,393.15,307.65,392.85z"/>
</g>
</svg>
