<?xml version="1.0" encoding="utf-8"?>
<!-- Generator: Adobe Illustrator 25.4.1, SVG Export Plug-In . SVG Version: 6.00 Build 0)  -->
<svg version="1.1" id="Layer_1" xmlns="http://www.w3.org/2000/svg" xmlns:xlink="http://www.w3.org/1999/xlink" x="0px" y="0px"
	 viewBox="0 0 176 32" style="enable-background:new 0 0 176 32;" xml:space="preserve">
<style type="text/css">
	.st0{fill:#ABB5DD;}
	.st1{fill:#7A8EC7;}
</style>
<path class="st0" d="M57,23.5c-0.9,0-1.6-0.7-1.6-1.6c0,0,0,0,0,0V10.1c0-0.9,0.7-1.6,1.6-1.6h5.9c3.1,0,5.5,2.5,5.5,5.5
	c0,3-2.5,5.5-5.5,5.5h-4.3v2.4c0,0.4-0.2,0.8-0.5,1.1C57.9,23.3,57.5,23.5,57,23.5z M65.3,14c0-1.3-1.1-2.4-2.4-2.4h-4.3v4.7h4.3
	C64.3,16.4,65.3,15.3,65.3,14L65.3,14z"/>
<path class="st0" d="M57,23.6c-0.9,0-1.7-0.8-1.7-1.7c0,0,0,0,0,0V10.1c0-0.9,0.8-1.7,1.7-1.7h5.9c3.1,0,5.6,2.5,5.7,5.7
	c0,3.1-2.5,5.6-5.7,5.6h-4.2v2.2C58.7,22.8,58,23.6,57,23.6C57,23.6,57,23.6,57,23.6L57,23.6z M57,8.6c-0.8,0-1.5,0.7-1.5,1.5v11.8
	c0,0.8,0.6,1.5,1.4,1.5c0,0,0,0,0,0c0.4,0,0.8-0.1,1-0.4c0.3-0.3,0.4-0.6,0.4-1v-2.5h4.5c3,0,5.4-2.4,5.4-5.4c0-3-2.4-5.4-5.4-5.4
	L57,8.6z M62.9,16.5h-4.5v-5h4.5c1.4,0,2.5,1.1,2.5,2.5c0,0.7-0.3,1.3-0.7,1.7C64.2,16.2,63.6,16.5,62.9,16.5z M58.7,16.3h4.2
	c1.2,0,2.2-1,2.2-2.2c0-0.6-0.2-1.2-0.7-1.6c-0.4-0.4-1-0.7-1.6-0.7h-4.2V16.3z"/>
<path class="st0" d="M72.2,11.6c-0.9,0-1.6-0.7-1.6-1.6c0,0,0,0,0,0c0-0.9,0.7-1.6,1.6-1.6h9.9c0.4,0,0.8,0.2,1.1,0.5
	c0.6,0.6,0.6,1.6,0,2.2c-0.3,0.3-0.7,0.5-1.1,0.5h-3.4v10.3c0,0.9-0.6,1.6-1.5,1.6c-0.9,0-1.6-0.6-1.6-1.5c0,0,0-0.1,0-0.1V11.6
	H72.2z"/>
<path class="st0" d="M77.2,23.6c-0.5,0-0.9-0.2-1.2-0.5c-0.3-0.3-0.5-0.8-0.5-1.2V11.8h-3.2c-0.9,0-1.7-0.8-1.6-1.8
	c0-0.9,0.7-1.6,1.6-1.6h9.9c0.9,0,1.7,0.8,1.7,1.7c0,0.5-0.2,0.9-0.5,1.2c-0.3,0.3-0.8,0.5-1.2,0.5h-3.2v10.1
	C78.9,22.8,78.1,23.6,77.2,23.6C77.2,23.6,77.2,23.6,77.2,23.6L77.2,23.6z M72.2,8.6c-0.8,0-1.5,0.6-1.5,1.5c0,0.4,0.2,0.8,0.4,1
	c0.3,0.3,0.6,0.4,1,0.4h3.5v10.4c0,0.4,0.1,0.8,0.4,1c0.3,0.3,0.6,0.4,1,0.4c0.4,0,0.8-0.1,1-0.4c0.3-0.3,0.4-0.6,0.4-1V11.5h3.5
	c0.4,0,0.8-0.1,1-0.4c0.6-0.6,0.6-1.5,0-2.1c-0.3-0.3-0.6-0.4-1-0.4L72.2,8.6z"/>
<path class="st0" d="M88.2,23.5c-0.9,0-1.6-0.7-1.6-1.6c0,0,0,0,0,0V10.1c0-0.9,0.8-1.5,1.6-1.5c0.8,0,1.5,0.7,1.5,1.5v11.8
	C89.8,22.8,89.1,23.5,88.2,23.5C88.2,23.5,88.2,23.5,88.2,23.5L88.2,23.5z"/>
<path class="st0" d="M88.2,23.6c-0.9,0-1.7-0.7-1.7-1.7c0,0,0,0,0,0V10.1c0-0.9,0.8-1.7,1.7-1.7c0.5,0,0.9,0.2,1.2,0.5
	c0.3,0.3,0.5,0.7,0.5,1.2v11.8C89.9,22.8,89.2,23.6,88.2,23.6C88.2,23.6,88.2,23.6,88.2,23.6L88.2,23.6z M88.2,8.6
	c-0.8,0-1.5,0.7-1.5,1.5v11.8c0,0.8,0.6,1.5,1.4,1.5c0,0,0,0,0,0c0.8,0,1.4-0.7,1.4-1.5c0,0,0,0,0,0V10.1C89.7,9.3,89,8.6,88.2,8.6
	L88.2,8.6z"/>
<path class="st0" d="M95.5,23.5c-0.9,0-1.6-0.7-1.6-1.6c0,0,0,0,0,0V10.1c0-0.9,0.7-1.6,1.6-1.6h5.9c3,0,5.5,2.5,5.5,5.5
	c0,3-2.5,5.5-5.5,5.5h-4.3v2.4C97.1,22.8,96.4,23.5,95.5,23.5C95.5,23.5,95.5,23.5,95.5,23.5L95.5,23.5z M103.8,14
	c0-1.3-1.1-2.4-2.4-2.4h-4.3v4.7h4.3C102.8,16.4,103.8,15.3,103.8,14z"/>
<path class="st0" d="M95.5,23.6c-0.9,0-1.7-0.7-1.7-1.7c0,0,0,0,0,0V10.1c0-0.9,0.8-1.7,1.7-1.7h5.9c3.1,0,5.6,2.5,5.7,5.7
	c0,3.1-2.5,5.6-5.7,5.6h-4.2v2.2C97.2,22.8,96.5,23.6,95.5,23.6C95.5,23.6,95.5,23.6,95.5,23.6L95.5,23.6z M95.5,8.6
	c-0.8,0-1.5,0.7-1.5,1.5v11.8c0,0.8,0.6,1.5,1.4,1.5c0.8,0,1.5-0.6,1.5-1.4c0,0,0-0.1,0-0.1v-2.5h4.5c3,0,5.4-2.4,5.4-5.4
	c0-3-2.4-5.4-5.4-5.4L95.5,8.6z M101.4,16.5H97v-5h4.5c1.4,0,2.5,1.1,2.5,2.5c0,0.7-0.3,1.3-0.7,1.8
	C102.7,16.2,102.1,16.5,101.4,16.5z M97.2,16.3h4.2c1.2,0,2.2-1,2.2-2.2c0-0.6-0.2-1.2-0.7-1.6c-0.4-0.4-1-0.7-1.6-0.7h-4.2V16.3z"
	/>
<path class="st0" d="M108.1,23.3c-0.4-0.2-0.7-0.5-0.8-0.9c-0.1-0.4-0.1-0.8,0.1-1.2l5.9-11.8c0.3-0.5,0.8-0.9,1.4-0.9
	c0.6,0,1.2,0.3,1.4,0.9l5.9,11.8c0.2,0.4,0.2,0.8,0.1,1.2c-0.1,0.4-0.4,0.7-0.8,0.9c-0.2,0.1-0.5,0.2-0.7,0.2
	c-0.3,0-0.6-0.1-0.8-0.2c-0.3-0.2-0.5-0.4-0.6-0.7l-1.1-2.1h-6.9l-1,2.1c-0.2,0.4-0.5,0.7-0.9,0.8C108.9,23.5,108.5,23.5,108.1,23.3
	z M112.8,17.3h3.8l-1.9-3.8L112.8,17.3z"/>
<path class="st0" d="M120.6,23.6c-0.6,0-1.2-0.4-1.5-1l-1-2h-6.8l-1,2c-0.2,0.4-0.6,0.7-1,0.9c-0.9,0.3-1.9-0.2-2.2-1.1
	c-0.1-0.4-0.1-0.9,0.1-1.3l5.9-11.8c0.1-0.3,0.4-0.5,0.6-0.7c0.8-0.5,1.8-0.3,2.3,0.5c0,0,0.1,0.1,0.1,0.1l5.9,11.8
	c0.2,0.4,0.3,0.9,0.1,1.3C122,23.1,121.4,23.6,120.6,23.6L120.6,23.6z M111.2,20.4h7.1l1.1,2.2c0.4,0.7,1.2,1,1.9,0.7
	c0.3-0.2,0.6-0.5,0.7-0.8c0.1-0.4,0.1-0.8-0.1-1.1L116,9.4c-0.1-0.2-0.3-0.4-0.5-0.6c-0.5-0.3-1.1-0.3-1.5,0
	c-0.2,0.1-0.4,0.3-0.5,0.6l-5.9,11.8c-0.2,0.3-0.2,0.7-0.1,1.1c0.1,0.4,0.4,0.7,0.7,0.8l0,0c0.3,0.2,0.7,0.2,1.1,0.1
	c0.4-0.1,0.7-0.4,0.8-0.7L111.2,20.4z M116.8,17.5h-4.2l2.1-4.2L116.8,17.5z M113,17.2h3.4l-1.7-3.4L113,17.2z"/>
<path class="st0" d="M128.3,19.5v2.4c0,0.9-0.6,1.6-1.5,1.6c-0.9,0-1.6-0.6-1.6-1.5c0,0,0-0.1,0-0.1V10.1c0-0.9,0.7-1.6,1.6-1.6h5.9
	c3.1,0,5.5,2.5,5.5,5.5c0,0.9-0.2,1.9-0.7,2.7c-0.4,0.8-1.1,1.5-1.9,2l2.1,2.1c0.6,0.6,0.6,1.6,0,2.2c0,0,0,0,0,0
	c-0.3,0.3-0.7,0.5-1.1,0.5c-0.4,0-0.8-0.2-1.1-0.5l-3.5-3.5L128.3,19.5z M135.1,14c0-1.3-1.1-2.4-2.4-2.4h-4.3v4.7h4.3
	C134,16.4,135,15.3,135.1,14z"/>
<path class="st0" d="M136.6,23.6c-0.5,0-0.9-0.2-1.2-0.5l-3.4-3.4h-3.5v2.2c0,0.9-0.7,1.7-1.6,1.8c-0.9,0-1.7-0.7-1.8-1.6
	c0,0,0-0.1,0-0.1V10.1c0-0.9,0.8-1.7,1.7-1.7h5.9c3.1,0,5.6,2.5,5.7,5.7c0,1-0.2,1.9-0.7,2.7c-0.4,0.8-1,1.4-1.8,1.9l2,2
	c0.7,0.7,0.7,1.7,0,2.4C137.5,23.4,137.1,23.6,136.6,23.6z M128.2,19.4h3.9l3.5,3.5c0.3,0.3,0.6,0.4,1,0.4c0.8,0,1.4-0.6,1.4-1.4
	c0,0,0,0,0,0c0-0.4-0.1-0.8-0.4-1l-2.2-2.2l0.1-0.1c0.8-0.5,1.4-1.1,1.8-1.9c0.5-0.8,0.7-1.7,0.7-2.6c0-3-2.4-5.4-5.4-5.4h-5.9
	c-0.8,0-1.5,0.7-1.5,1.5v11.8c0,0.8,0.6,1.5,1.4,1.5c0.8,0,1.5-0.6,1.5-1.4c0,0,0-0.1,0-0.1V19.4z M132.7,16.5h-4.5v-5h4.5
	c1.4,0,2.5,1.1,2.5,2.5c0,0.7-0.3,1.3-0.7,1.8C134,16.2,133.3,16.5,132.7,16.5z M128.5,16.3h4.2c0.6,0,1.2-0.2,1.6-0.7
	c0.9-0.9,0.9-2.3,0-3.2c-0.4-0.4-1-0.7-1.6-0.7h-4.2V16.3z"/>
<path class="st0" d="M153.9,8.7c0.4,0.2,0.6,0.6,0.7,1c0.1,0.4,0,0.8-0.2,1.2l-3.3,5l3.3,5c0.2,0.3,0.3,0.8,0.2,1.2
	c-0.1,0.4-0.3,0.8-0.7,1c-0.3,0.2-0.6,0.3-0.9,0.2c-0.5,0-1-0.3-1.3-0.7l-3.5-5.2h-3.5v4.3c0,0.9-0.6,1.6-1.5,1.6
	c-0.9,0-1.6-0.6-1.6-1.5c0,0,0-0.1,0-0.1V10.1c0-0.9,0.8-1.5,1.6-1.5c0.8,0,1.5,0.7,1.5,1.5v4.3h3.5l3.5-5.2c0.2-0.4,0.6-0.6,1-0.7
	C153.1,8.4,153.5,8.5,153.9,8.7z"/>
<path class="st0" d="M153,23.6c-0.6,0-1.1-0.3-1.4-0.7l-3.4-5.2h-3.3v4.2c0,0.9-0.7,1.7-1.6,1.8c-0.9,0-1.7-0.7-1.8-1.6
	c0,0,0-0.1,0-0.1V10.1c0-0.9,0.8-1.7,1.8-1.6c0.9,0,1.6,0.7,1.6,1.6v4.2h3.3l3.4-5.2c0.2-0.4,0.6-0.7,1.1-0.7c0.4-0.1,0.9,0,1.3,0.2
	l0,0c0.4,0.2,0.6,0.6,0.7,1.1c0.1,0.4,0,0.9-0.2,1.3l-3.3,5l3.3,5c0.5,0.8,0.3,1.8-0.5,2.4c0,0,0,0,0,0
	C153.7,23.5,153.3,23.6,153,23.6z M144.6,17.4h3.7l3.5,5.3c0.3,0.4,0.7,0.7,1.2,0.6c0.3,0,0.6-0.1,0.8-0.2c0.7-0.4,0.8-1.4,0.4-2
	l-3.4-5.1l0-0.1l3.4-5c0.2-0.3,0.3-0.7,0.2-1.1c-0.1-0.4-0.3-0.7-0.6-0.9c-0.3-0.2-0.7-0.3-1.1-0.2c-0.4,0.1-0.7,0.3-0.9,0.6
	l-3.5,5.3h-3.7v-4.5c0-0.8-0.7-1.4-1.5-1.4c-0.8,0-1.4,0.6-1.4,1.4v11.8c0,0.8,0.6,1.5,1.4,1.5c0.8,0,1.5-0.6,1.5-1.4
	c0,0,0-0.1,0-0.1L144.6,17.4z"/>
<path class="st0" d="M37.2,1.6C37.2,1.6,37.3,1.6,37.2,1.6c0.3,0,0.5,0,0.7,0c0.3,0,0.6,0,1,0.1c0.5,0.1,0.9,0.1,1.4,0.2
	c1.2,0.2,2.4,0.7,3.6,1.2c0.3,0.1,0.5,0.3,0.7,0.4C44.9,3.7,45,4,45.1,4.2c0.1,0.5-0.2,1-0.7,1.1c0,0,0,0,0,0c-0.3,0-0.5,0-0.8-0.1
	c-0.6-0.3-1.2-0.6-1.9-0.8c-0.6-0.2-1.3-0.4-1.9-0.5c-0.3-0.1-0.7-0.1-1-0.1c-0.3,0-0.6,0-0.9-0.1c-0.2,0-0.4,0-0.6,0
	c-0.4,0-0.7,0-1.1,0.1c-0.6,0.1-1.3,0.2-1.9,0.3c-0.1,0-0.1,0-0.2,0c0,0,0,0,0,0c-0.2,0-0.3,0-0.5,0C33.3,4,33,4,32.8,4
	c-0.3,0-0.7,0.1-1,0.2c-0.6,0.1-1.1,0.3-1.7,0.5c-0.4,0.2-0.8,0.4-1.2,0.6c-0.4,0.2-0.7,0.5-1,0.7c-0.3,0.3-0.6,0.5-0.9,0.8
	c-0.2,0.2-0.3,0.4-0.5,0.5C26.2,7.7,26,8,25.8,8.3c-0.4,0.5-0.7,1.1-1,1.7c-0.2,0.5-0.4,1-0.5,1.5c-0.1,0.4-0.2,0.9-0.2,1.3
	c0,0.3-0.1,0.6-0.1,0.9c0,0.2,0,0.5,0,0.7c0,0.3,0,0.6,0.1,0.8c0,0.4,0.1,0.7,0.2,1.1c0.1,0.4,0.2,0.8,0.4,1.2
	c0.2,0.4,0.4,0.9,0.6,1.3c0,0,0,0,0.1,0c0,0.1,0.1,0.3,0.1,0.4c0.1,0.4,0.3,0.9,0.5,1.3c0.3,0.7,0.7,1.4,1.1,2.1
	c0.4,0.6,0.8,1.2,1.3,1.7c0.1,0.2,0.3,0.3,0.4,0.5c0.2,0.2,0.3,0.4,0.3,0.7c0,0.2-0.1,0.4-0.2,0.6c-0.4,0.4-1,0.4-1.4,0.1
	c0,0,0,0,0,0c-0.6-0.6-1.2-1.4-1.7-2.1c-0.4-0.7-0.8-1.3-1.2-2c-0.4-0.9-0.7-1.8-1-2.7c-0.1-0.4-0.2-0.8-0.2-1.2
	c0-0.3-0.1-0.7-0.1-1c0-0.1,0-0.3,0-0.4c0,0,0,0,0-0.1v-0.6c0,0,0-0.1,0-0.1c0-0.1,0-0.3,0-0.4c0-0.3,0-0.5,0.1-0.8
	c0-0.3,0.1-0.7,0.1-1c0.1-0.6,0.3-1.3,0.5-1.9c0.2-0.7,0.5-1.4,0.8-2.1c0.3-0.7,0.7-1.4,1.2-2c0.3-0.4,0.6-0.9,1-1.2
	c0.2-0.2,0.4-0.4,0.6-0.6C27.6,5.4,27.8,5.2,28,5c0.3-0.3,0.7-0.5,1.1-0.8c0.6-0.4,1.2-0.7,1.8-1.1C31.3,3,31.6,2.8,32,2.7
	c0.6-0.3,1.3-0.5,1.9-0.7c0.5-0.1,1-0.2,1.6-0.3c0.3,0,0.6-0.1,1-0.1c0.2,0,0.4,0,0.5,0c0,0,0.1,0,0.1,0L37.2,1.6z"/>
<path class="st0" d="M38,24.8c0.8,0,1.6-0.2,2.4-0.5c0.5-0.2,0.9-0.4,1.3-0.6c0.3-0.2,0.8-0.2,1.2,0c0.2,0.2,0.3,0.4,0.4,0.7
	c0,0.4-0.2,0.8-0.6,1c-0.6,0.3-1.2,0.6-1.9,0.8c-0.6,0.2-1.2,0.3-1.8,0.4c-0.7,0.1-1.4,0.1-2.1,0.1c-0.7,0-1.3-0.1-1.9-0.3
	c-0.7-0.2-1.4-0.4-2-0.7c-0.7-0.3-1.4-0.8-2.1-1.3c-0.3-0.2-0.5-0.4-0.8-0.7c-0.9-0.8-1.6-1.8-2.2-2.9c-0.6-1.2-1-2.5-1.1-3.8
	c-0.1-0.5-0.1-1-0.1-1.4c0-0.6,0.1-1.1,0.2-1.7c0.2-1.1,0.6-2.1,1.1-3.1c0.1-0.3,0.3-0.5,0.5-0.6c0.5-0.3,1-0.1,1.3,0.3
	c0.1,0.1,0.1,0.2,0.1,0.3c0,0.3,0,0.6-0.2,0.8c-0.2,0.4-0.4,0.7-0.5,1.1c-0.2,0.5-0.3,0.9-0.4,1.4c-0.1,0.2-0.1,0.5-0.1,0.7
	c0,0.1,0,0.2,0,0.3c0,0,0,0-0.1,0.1c-0.1,0.1-0.1,0.2-0.2,0.4c-0.2,0.5-0.3,1-0.4,1.5c-0.1,0.3-0.1,0.7-0.1,1.1c0,0.3,0,0.7,0,1
	c0.1,1,0.4,1.9,0.9,2.8c0.3,0.5,0.7,1,1.1,1.4c0.2,0.2,0.4,0.4,0.6,0.5c0.4,0.3,0.8,0.6,1.2,0.8c0.6,0.3,1.2,0.5,1.8,0.7
	c0.5,0.1,0.9,0.2,1.4,0.2c0.2,0,0.4,0,0.6,0c0.2,0,0.5,0,0.7-0.1c0.6-0.1,1.2-0.3,1.7-0.5C37.9,24.9,38,24.8,38,24.8z"/>
<path class="st1" d="M41.8,27.7c0.4-0.2,0.9-0.3,1.3-0.6c0.7-0.3,1.3-0.7,1.9-1.2c0.3-0.2,0.6-0.5,0.9-0.7c0.3-0.3,0.5-0.5,0.7-0.7
	c0.5-0.5,1-1.1,1.4-1.7c0.2-0.3,0.4-0.6,0.5-0.9c0.6-1.1,1-2.3,1.2-3.6c0.1-0.3,0.1-0.6,0.1-0.9c0-0.2,0-0.4,0.1-0.6c0,0,0,0,0,0
	c0,0,0.1,0,0.1,0.1c0.6,0.9,1.1,1.9,1.2,3c0,0,0,0.1,0,0.1c-0.1,0.5-0.3,1.1-0.5,1.6c-0.2,0.4-0.3,0.7-0.5,1.1
	c-0.4,0.7-0.8,1.4-1.3,2.1c-0.2,0.3-0.4,0.5-0.7,0.8c-0.3,0.4-0.6,0.7-1,1c-0.2,0.2-0.5,0.5-0.8,0.7c-0.4,0.3-0.8,0.6-1.2,0.9
	c0,0,0,0,0,0c-0.3,0-0.5,0.1-0.8,0.1C43.6,28.1,42.7,28,41.8,27.7C41.8,27.7,41.8,27.7,41.8,27.7z"/>
<path class="st1" d="M40.3,5.7C40.6,5.7,41,5.8,41.3,6c0.9,0.4,1.8,0.9,2.6,1.5c0.2,0.2,0.4,0.4,0.6,0.5c0.1,0.1,0.3,0.2,0.4,0.4
	c0.1,0.1,0.3,0.3,0.4,0.4c0.1,0.1,0.2,0.3,0.4,0.4c0,0,0,0.1,0.1,0.1c0,0,0,0.1,0,0.1c0.2,0.5,0.4,1,0.5,1.5
	c0.1,0.4,0.1,0.8,0.2,1.1c0,0.3,0,0.7,0,1c0,0.3-0.1,0.6-0.1,0.9c0,0.3-0.1,0.5-0.2,0.7c-0.1-0.2-0.1-0.5-0.2-0.7
	c-0.1-0.5-0.3-0.9-0.5-1.3c-0.2-0.6-0.5-1.1-0.9-1.6c-0.2-0.2-0.4-0.5-0.6-0.7c-0.2-0.2-0.4-0.4-0.5-0.6C43.3,9.4,43,9.2,42.8,9
	c-0.3-0.2-0.6-0.5-1-0.7c-0.3-0.2-0.7-0.3-1-0.5c-0.5-0.2-0.9-0.3-1.4-0.5c-0.2-0.1-0.5-0.1-0.7-0.1S38,7.2,37.8,7.2
	c-0.2,0-0.3,0-0.5,0c-0.3,0-0.6,0-0.9,0.1c-0.3,0-0.6,0.1-1,0.2c0,0,0-0.1,0-0.1c0.1-0.1,0.2-0.2,0.4-0.3c0.3-0.2,0.6-0.4,0.9-0.6
	C37,6.3,37.4,6.1,37.8,6c0.5-0.2,0.9-0.2,1.4-0.3c0.3,0,0.7,0,1,0C40.3,5.7,40.3,5.7,40.3,5.7z"/>
<path class="st1" d="M25.3,18.8C25.2,18.8,25.2,18.8,25.3,18.8c-0.3-0.5-0.5-0.9-0.6-1.3c-0.1-0.4-0.3-0.8-0.4-1.2
	c-0.1-0.4-0.1-0.7-0.2-1.1c0-0.3-0.1-0.6-0.1-0.8c0-0.2,0-0.5,0-0.7c0-0.3,0-0.6,0.1-0.9c0.1-0.4,0.1-0.9,0.2-1.3
	c0.1-0.5,0.3-1,0.5-1.5c0.3-0.6,0.6-1.2,1-1.7C26,8,26.2,7.7,26.4,7.4c0.2-0.2,0.3-0.4,0.5-0.5c0.3-0.3,0.6-0.6,0.9-0.8
	c0.3-0.3,0.7-0.5,1-0.7c0.4-0.2,0.8-0.5,1.2-0.6c0.5-0.2,1.1-0.4,1.7-0.5c0.3-0.1,0.6-0.1,1-0.2C33,4,33.3,4,33.6,4
	c0.2,0,0.3,0,0.5,0c0,0,0,0,0,0c-0.3,0.1-0.6,0.2-0.8,0.3c-0.4,0.1-0.7,0.3-1.1,0.5c-0.6,0.3-1.3,0.7-1.9,1.1
	C30,6,29.8,6.2,29.5,6.4c-0.4,0.3-0.7,0.6-1,1c-0.4,0.4-0.7,0.8-1.1,1.3c-0.4,0.6-0.8,1.2-1.1,1.9c-0.2,0.4-0.4,0.8-0.5,1.2
	c-0.2,0.5-0.3,1-0.4,1.5c-0.1,0.3-0.1,0.7-0.2,1c0,0.3-0.1,0.6-0.1,0.9c0,0.1,0,0.2,0,0.3c0,0.4,0,0.7,0,1.1c0,0.3,0,0.5,0.1,0.8
	C25.1,17.9,25.2,18.3,25.3,18.8z"/>
<path class="st1" d="M38,24.8c0,0.1-0.1,0.1-0.2,0.1c-0.5,0.2-1.1,0.4-1.7,0.5c-0.2,0-0.5,0.1-0.7,0.1c-0.2,0-0.4,0-0.6,0
	c-0.5,0-0.9-0.1-1.4-0.2c-0.6-0.1-1.2-0.4-1.8-0.7c-0.4-0.2-0.8-0.5-1.2-0.8c-0.2-0.2-0.4-0.3-0.6-0.5c-0.4-0.4-0.8-0.9-1.1-1.4
	c-0.5-0.8-0.8-1.8-0.9-2.8c0-0.3-0.1-0.7,0-1c0-0.4,0-0.7,0.1-1.1c0.1-0.5,0.2-1,0.4-1.5c0.1-0.1,0.1-0.2,0.2-0.4c0,0,0-0.1,0.1-0.1
	c0,0.2,0,0.5,0,0.7c0,0.2,0,0.4,0,0.6c0,0.1,0,0.3,0,0.4c0,0.3,0.1,0.5,0.1,0.8c0.1,0.4,0.2,0.9,0.4,1.3c0.2,0.5,0.5,1.1,0.7,1.6
	c0.2,0.4,0.5,0.7,0.7,1c0.2,0.3,0.5,0.6,0.7,0.8c0.4,0.4,0.9,0.7,1.3,1c0.4,0.3,0.9,0.5,1.3,0.7c0.4,0.2,0.9,0.3,1.3,0.4
	c0.3,0.1,0.6,0.1,0.9,0.2c0.5,0.1,1,0.1,1.5,0.1C37.9,24.8,37.9,24.8,38,24.8z"/>
<path class="st1" d="M37.7,10.9h-0.4c-0.5,0-0.9,0.1-1.3,0.2c-0.3,0.1-0.6,0.2-0.9,0.4c-0.3,0.2-0.6,0.4-0.9,0.6
	c-0.4,0.3-0.7,0.7-1,1.1c-0.4,0.6-0.6,1.2-0.7,1.8c0,0.2-0.1,0.4-0.1,0.7c0,0.2,0,0.4,0,0.6c0,0.7,0.2,1.4,0.5,2
	c-0.1,0-0.2-0.1-0.2-0.1c-0.4-0.3-0.7-0.6-0.9-0.9c-0.3-0.4-0.6-0.9-0.7-1.5c-0.1-0.4-0.2-0.7-0.2-1.1c0-0.1,0-0.3,0-0.4
	s0-0.2,0-0.3s0.1-0.2,0-0.2c0.1-0.2,0.2-0.4,0.2-0.6c0.2-0.4,0.4-0.7,0.6-1.1c0.2-0.3,0.4-0.6,0.6-0.8c0.1-0.1,0.3-0.3,0.4-0.4
	c0.1,0,0.1,0,0.2-0.1c0.3-0.2,0.7-0.4,1.1-0.5c0.4-0.1,0.7-0.2,1.1-0.2c0.2,0,0.3,0,0.5,0c0.2,0,0.5,0.1,0.7,0.1
	c0.5,0.1,1,0.3,1.4,0.6C37.6,10.8,37.7,10.8,37.7,10.9z"/>
<path class="st1" d="M37.9,21.1c0.5,0,1-0.1,1.4-0.3c0.4-0.2,0.9-0.4,1.2-0.7c0.3-0.3,0.6-0.5,0.9-0.9c0.2-0.3,0.5-0.6,0.6-1
	c0.2-0.4,0.3-0.8,0.4-1.2c0.1-0.4,0.1-0.8,0.1-1.2c0-0.2,0-0.3-0.1-0.5c0,0,0.1,0,0.1,0c0.8,0.6,1.4,1.5,1.5,2.5
	c0,0.1,0,0.2,0.1,0.3c-0.1,0.3-0.2,0.5-0.3,0.7c-0.2,0.5-0.4,0.9-0.7,1.3c-0.2,0.3-0.4,0.5-0.6,0.7c-0.4,0.4-0.8,0.8-1.3,1.1
	c-0.1,0.1-0.2,0.1-0.4,0.2c0,0-0.1,0-0.1,0c-0.2,0-0.4,0-0.6,0c-0.3,0-0.6-0.1-0.9-0.2c-0.4-0.1-0.8-0.4-1.2-0.6
	C38,21.2,37.9,21.2,37.9,21.1z"/>
<path class="st0" d="M46.1,14.6c0.1-0.2,0.2-0.5,0.2-0.7c0.1-0.3,0.1-0.6,0.1-0.9c0-0.3,0-0.7,0-1c0-0.4-0.1-0.8-0.2-1.1
	c-0.1-0.5-0.3-1-0.5-1.5c0,0,0-0.1,0-0.1c0.1,0.2,0.3,0.4,0.4,0.5c0.3,0.5,0.6,0.9,0.8,1.4c0.4,0.8,0.7,1.7,0.9,2.6
	c0.1,0.5,0.1,0.9,0.2,1.4c0,0.3,0,0.6,0,1c0,0.7-0.1,1.4-0.3,2.1c0,0.3-0.1,0.5-0.3,0.7c-0.2,0.3-0.6,0.5-0.9,0.4
	c-0.4-0.1-0.7-0.4-0.7-0.7c0-0.2,0-0.4,0-0.6c0.1-0.4,0.2-0.8,0.2-1.2c0-0.2,0-0.4,0-0.6c0-0.1,0-0.2,0-0.3c0-0.3,0-0.6-0.1-0.9
	C46.1,14.9,46.1,14.7,46.1,14.6z"/>
<path class="st0" d="M41.8,27.7C41.8,27.7,41.8,27.7,41.8,27.7c0.9,0.3,1.8,0.5,2.7,0.4c0.3,0,0.5,0,0.8-0.1
	c-0.1,0.1-0.3,0.2-0.5,0.3c-0.4,0.2-0.8,0.5-1.2,0.7c-0.7,0.3-1.5,0.6-2.3,0.9c-0.5,0.1-1.1,0.3-1.6,0.3c-0.4,0.1-0.7,0.1-1.1,0.1
	c-0.4,0-0.7,0.1-1.1,0.1c-0.3,0-0.5-0.1-0.7-0.3c-0.1-0.1-0.2-0.3-0.2-0.5c0-0.2,0-0.5,0.1-0.7c0.1-0.2,0.4-0.4,0.6-0.4
	c0.4-0.1,0.8-0.1,1.2-0.1c0.6,0,1.1-0.1,1.7-0.2c0.4-0.1,0.9-0.2,1.3-0.4L41.8,27.7z"/>
<path class="st0" d="M51.2,19.8c-0.1,0,0-0.1,0-0.1c-0.2-1.1-0.6-2.1-1.3-2.9c0,0,0-0.1-0.1-0.1c0-0.3,0-0.6,0-0.8
	c0-0.3,0-0.7-0.1-1c-0.1-0.7-0.2-1.4-0.4-2.1c-0.1-0.3,0-0.6,0.2-0.9c0.2-0.3,0.6-0.4,0.9-0.4c0.4,0,0.7,0.3,0.7,0.7
	c0.1,0.5,0.3,1,0.3,1.5c0,0.3,0.1,0.6,0.1,1c0.1,0.6,0.1,1.2,0.1,1.7c0,0.3,0,0.6-0.1,0.9s-0.1,0.6-0.1,0.9c-0.1,0.3-0.1,0.7-0.2,1
	C51.4,19.4,51.3,19.6,51.2,19.8z"/>
<path class="st0" d="M40.3,5.7c0,0-0.1,0-0.1,0c-0.3,0-0.7,0-1,0c-0.5,0-1,0.1-1.4,0.3c-0.4,0.1-0.8,0.3-1.2,0.5
	c-0.3,0.2-0.6,0.4-0.9,0.6c-0.1,0.1-0.2,0.2-0.4,0.3c0,0,0,0,0,0.1c-0.3,0.1-0.6,0.2-0.8,0.2c-0.3,0.1-0.6,0.2-0.9,0.4L33,8.4
	c-0.5,0.2-1.1,0-1.3-0.4C31.5,7.5,31.6,7,32,6.7c0.3-0.2,0.7-0.4,1-0.6c0.6-0.3,1.2-0.5,1.8-0.6c0.5-0.1,1-0.2,1.5-0.2
	c0.5-0.1,1-0.1,1.5-0.1c0.3,0,0.6,0,0.8,0.1c0.4,0,0.7,0.1,1.1,0.2C39.9,5.5,40.1,5.6,40.3,5.7z"/>
<path class="st0" d="M37.7,10.9c0-0.1-0.1-0.1-0.1-0.1c-0.4-0.3-0.9-0.5-1.4-0.6C36,10.1,35.7,10,35.5,10c-0.2,0-0.3,0-0.5,0
	c-0.4,0-0.8,0.1-1.1,0.2c-0.4,0.1-0.8,0.3-1.1,0.5c0,0-0.1,0.1-0.2,0.1c0.1-0.1,0.2-0.2,0.4-0.3c0.4-0.3,0.9-0.6,1.4-0.8
	c0.5-0.2,1.1-0.4,1.7-0.5c0.5-0.1,1.1-0.1,1.7-0.1c0.5,0,1,0.1,1.4,0.2c0.4,0.1,0.7,0.4,0.8,0.8c0.1,0.5-0.2,1-0.7,1.1
	c-0.2,0-0.5,0-0.7,0C38.3,10.9,38,10.9,37.7,10.9C37.8,10.9,37.7,10.9,37.7,10.9z"/>
<path class="st0" d="M30.7,13.7c0,0.1,0,0.2,0,0.2s0,0.2,0,0.3c0,0.1,0,0.3,0,0.4c0,0.4,0.1,0.7,0.2,1.1c0.2,0.5,0.4,1,0.7,1.5
	c0.3,0.3,0.6,0.6,0.9,0.9c0.1,0.1,0.1,0.1,0.2,0.1c0.1,0.2,0.2,0.4,0.3,0.6c0.1,0.3,0,0.6-0.1,0.8c-0.3,0.4-0.9,0.5-1.3,0.2
	c-0.2-0.1-0.3-0.3-0.4-0.5c-0.4-0.7-0.6-1.4-0.7-2.1c-0.1-0.5-0.1-1.1-0.1-1.6c0-0.4,0.1-0.8,0.2-1.2C30.6,14.2,30.6,13.9,30.7,13.7
	C30.7,13.7,30.7,13.7,30.7,13.7z"/>
<path class="st0" d="M44.2,18c0-0.1-0.1-0.2-0.1-0.3c-0.2-1-0.7-1.9-1.5-2.5c0,0-0.1-0.1-0.1,0c-0.1-0.3-0.1-0.5-0.1-0.8
	c0-0.5,0.4-0.9,1-0.9c0.4,0,0.8,0.3,0.9,0.8c0.1,0.4,0.2,0.9,0.2,1.3c0,0.3,0,0.6,0,0.9C44.4,16.9,44.4,17.5,44.2,18
	C44.2,18,44.2,18,44.2,18z"/>
<path class="st0" d="M37.9,21.1c0,0.1,0.1,0.1,0.2,0.2c0.3,0.3,0.7,0.5,1.2,0.6c0.3,0.1,0.6,0.2,0.9,0.2c0.2,0,0.4,0,0.6,0
	c0,0,0.1,0,0.1,0c-0.1,0.1-0.2,0.1-0.3,0.2c-0.2,0.1-0.4,0.2-0.7,0.3c-0.5,0.2-1,0.3-1.5,0.4c-0.3,0-0.6,0.1-0.9,0.1
	c-0.3,0-0.5-0.1-0.7-0.2c-0.2-0.1-0.3-0.4-0.3-0.6c0-0.3,0-0.5,0.2-0.7c0.2-0.2,0.4-0.3,0.6-0.3C37.5,21.1,37.7,21.1,37.9,21.1z"/>
</svg>
