<?xml version="1.0" encoding="utf-8"?>
<!-- Generator: Adobe Illustrator 25.4.1, SVG Export Plug-In . SVG Version: 6.00 Build 0)  -->
<svg version="1.2" baseProfile="tiny" id="Layer_1" xmlns="http://www.w3.org/2000/svg" xmlns:xlink="http://www.w3.org/1999/xlink"
	 x="0px" y="0px" viewBox="0 0 176 32" overflow="visible" xml:space="preserve">
<g>
	<path fill="#ABB5DD" d="M53.8,24.1c-0.9,0-1.7-0.7-1.7-1.7c0,0,0,0,0,0V9.6c0-0.9,0.8-1.7,1.7-1.7h6.4c3.3,0,5.9,2.7,5.9,5.9
		c0,3.3-2.7,5.9-5.9,5.9h-4.7v2.5c0,0.5-0.2,0.9-0.5,1.2C54.7,23.9,54.2,24.1,53.8,24.1z M62.7,13.9c0-1.4-1.1-2.5-2.6-2.6h-4.7v5.1
		h4.7C61.5,16.4,62.7,15.3,62.7,13.9L62.7,13.9z"/>
	<path fill="#ABB5DD" d="M53.8,24.2c-1,0-1.8-0.8-1.8-1.8c0,0,0,0,0,0V9.6c0-1,0.8-1.8,1.8-1.8h6.4c3.4,0,6.1,2.7,6.1,6.1
		c0,3.3-2.7,6.1-6.1,6.1h-4.5v2.4C55.6,23.4,54.8,24.2,53.8,24.2C53.8,24.2,53.8,24.2,53.8,24.2L53.8,24.2z M53.8,8.1
		c-0.9,0-1.6,0.7-1.6,1.6v12.7c0,0.9,0.7,1.6,1.5,1.6c0,0,0,0,0,0c0.4,0,0.8-0.2,1.1-0.5c0.3-0.3,0.5-0.7,0.5-1.1v-2.7h4.8
		c3.2,0,5.8-2.6,5.8-5.8c0-3.2-2.6-5.8-5.8-5.8L53.8,8.1z M60.1,16.6h-4.8v-5.4h4.8c1.5,0,2.7,1.2,2.7,2.7c0,0.7-0.3,1.4-0.8,1.9
		C61.5,16.3,60.8,16.6,60.1,16.6z M55.6,16.3h4.5c1.3,0,2.4-1.1,2.4-2.4c0-0.6-0.2-1.3-0.7-1.7c-0.4-0.5-1.1-0.7-1.7-0.7h-4.5V16.3z
		"/>
	<path fill="#ABB5DD" d="M70.1,11.3c-0.9,0-1.7-0.8-1.7-1.7c0,0,0,0,0,0c0-0.9,0.8-1.7,1.7-1.7h10.6c0.5,0,0.9,0.2,1.2,0.5
		c0.7,0.7,0.7,1.7,0,2.4c-0.3,0.3-0.8,0.5-1.2,0.5h-3.6v11c0,0.9-0.7,1.7-1.6,1.8c-0.9,0-1.7-0.7-1.8-1.6c0,0,0-0.1,0-0.1v-11H70.1z
		"/>
	<path fill="#ABB5DD" d="M75.4,24.2c-0.5,0-1-0.2-1.3-0.5c-0.3-0.3-0.5-0.8-0.5-1.3V11.5h-3.5c-1,0-1.8-0.9-1.8-1.9
		c0-1,0.8-1.7,1.8-1.8h10.6c1,0,1.8,0.8,1.8,1.8c0,0.5-0.2,1-0.5,1.3c-0.3,0.3-0.8,0.5-1.3,0.5h-3.5v10.9
		C77.2,23.4,76.4,24.2,75.4,24.2C75.4,24.2,75.4,24.2,75.4,24.2L75.4,24.2z M70.1,8.1c-0.9,0-1.6,0.7-1.6,1.6c0,0.4,0.2,0.8,0.5,1.1
		c0.3,0.3,0.7,0.5,1.1,0.5h3.7v11.2c0,0.4,0.2,0.8,0.5,1.1c0.3,0.3,0.7,0.5,1.1,0.5c0.4,0,0.8-0.2,1.1-0.5c0.3-0.3,0.5-0.7,0.5-1.1
		V11.2h3.7c0.4,0,0.8-0.2,1.1-0.5c0.6-0.6,0.6-1.6,0-2.2c-0.3-0.3-0.7-0.4-1.1-0.4L70.1,8.1z"/>
	<path fill="#ABB5DD" d="M87.3,24.1c-0.9,0-1.7-0.7-1.7-1.7c0,0,0,0,0,0V9.6c0-0.9,0.8-1.7,1.8-1.6c0.9,0,1.6,0.7,1.6,1.6v12.7
		C89,23.3,88.3,24.1,87.3,24.1C87.3,24.1,87.3,24.1,87.3,24.1L87.3,24.1z"/>
	<path fill="#ABB5DD" d="M87.3,24.2c-1,0-1.8-0.8-1.8-1.8c0,0,0,0,0,0V9.6c0-1,0.8-1.8,1.8-1.8c0.5,0,1,0.2,1.3,0.5
		c0.3,0.3,0.5,0.8,0.5,1.3v12.7C89.1,23.4,88.3,24.2,87.3,24.2C87.3,24.2,87.3,24.2,87.3,24.2L87.3,24.2z M87.3,8.1
		c-0.9,0-1.6,0.7-1.6,1.6v12.7c0,0.9,0.7,1.6,1.5,1.6c0,0,0,0,0,0c0.9,0,1.6-0.7,1.6-1.6c0,0,0,0,0,0V9.6
		C88.9,8.8,88.2,8.1,87.3,8.1L87.3,8.1z"/>
	<path fill="#ABB5DD" d="M95.2,24.1c-0.9,0-1.7-0.7-1.7-1.7c0,0,0,0,0,0V9.6c0-0.9,0.8-1.7,1.7-1.7h6.4c3.3,0,5.9,2.7,5.9,5.9
		c0,3.3-2.7,5.9-5.9,5.9h-4.7v2.5C96.9,23.3,96.1,24.1,95.2,24.1C95.2,24.1,95.2,24.1,95.2,24.1L95.2,24.1z M104.1,13.9
		c0-1.4-1.1-2.5-2.6-2.6h-4.7v5.1h4.7C102.9,16.4,104.1,15.3,104.1,13.9z"/>
	<path fill="#ABB5DD" d="M95.2,24.2c-1,0-1.8-0.8-1.8-1.8c0,0,0,0,0,0V9.6c0-1,0.8-1.8,1.8-1.8h6.4c3.4,0,6.1,2.7,6.1,6.1
		c0,3.3-2.7,6.1-6.1,6.1H97v2.4C97,23.4,96.2,24.2,95.2,24.2C95.2,24.2,95.2,24.2,95.2,24.2L95.2,24.2z M95.2,8.1
		c-0.9,0-1.6,0.7-1.6,1.6v12.7c0,0.9,0.6,1.6,1.5,1.6c0.9,0,1.6-0.6,1.6-1.5c0,0,0-0.1,0-0.1v-2.7h4.8c3.2,0,5.8-2.6,5.8-5.8
		c0-3.2-2.6-5.8-5.8-5.8L95.2,8.1z M101.5,16.6h-4.8v-5.4h4.8c1.5,0,2.7,1.2,2.7,2.7c0,0.7-0.3,1.4-0.8,1.9
		C102.9,16.3,102.2,16.6,101.5,16.6z M97,16.3h4.5c1.3,0,2.4-1.1,2.4-2.4c0-0.6-0.3-1.3-0.7-1.7c-0.4-0.5-1.1-0.7-1.7-0.7H97V16.3z"
		/>
	<path fill="#ABB5DD" d="M108.7,23.9c-0.4-0.2-0.7-0.5-0.9-1c-0.2-0.4-0.1-0.9,0.1-1.3l6.4-12.7c0.3-0.6,0.9-0.9,1.5-0.9
		c0.6,0,1.2,0.4,1.5,0.9l6.4,12.7c0.2,0.4,0.2,0.9,0.1,1.3c-0.1,0.4-0.4,0.8-0.9,1c-0.2,0.1-0.5,0.2-0.8,0.2c-0.3,0-0.6-0.1-0.9-0.2
		c-0.3-0.2-0.5-0.4-0.6-0.7l-1.1-2.2h-7.4l-1.1,2.2c-0.2,0.4-0.5,0.7-1,0.9C109.5,24.1,109.1,24.1,108.7,23.9z M113.8,17.5h4l-2-4
		L113.8,17.5z"/>
	<path fill="#ABB5DD" d="M122.2,24.2c-0.7,0-1.3-0.4-1.6-1l-1.1-2.2h-7.3l-1.1,2.2c-0.2,0.4-0.6,0.8-1.1,0.9c-1,0.3-2-0.2-2.3-1.2
		c-0.2-0.5-0.1-1,0.1-1.4l6.4-12.7c0.2-0.3,0.4-0.6,0.7-0.7c0.9-0.5,2-0.3,2.5,0.6c0,0.1,0.1,0.1,0.1,0.2l6.3,12.7
		c0.2,0.4,0.3,0.9,0.1,1.4C123.6,23.7,122.9,24.2,122.2,24.2L122.2,24.2z M112,20.7h7.6l1.2,2.3c0.4,0.8,1.3,1.1,2.1,0.7
		c0.4-0.2,0.7-0.5,0.8-0.9c0.1-0.4,0.1-0.8-0.1-1.2l-6.4-12.7c-0.1-0.3-0.3-0.5-0.6-0.6c-0.5-0.3-1.1-0.3-1.6,0
		c-0.2,0.2-0.4,0.4-0.6,0.6L108,21.7c-0.2,0.4-0.2,0.8-0.1,1.2c0.1,0.4,0.4,0.7,0.8,0.9l0,0c0.4,0.2,0.8,0.2,1.2,0.1
		c0.4-0.1,0.7-0.4,0.9-0.8L112,20.7z M118,17.6h-4.5l2.2-4.5L118,17.6z M114,17.3h3.6l-1.8-3.6L114,17.3z"/>
	<path fill="#ABB5DD" d="M130.4,19.8v2.5c0,0.9-0.7,1.7-1.6,1.8c-0.9,0-1.7-0.7-1.8-1.6c0,0,0-0.1,0-0.1V9.6c0-0.9,0.8-1.7,1.7-1.7
		h6.4c3.3,0,5.9,2.7,5.9,5.9c0,1-0.3,2-0.8,2.9c-0.5,0.9-1.2,1.6-2,2.1l2.3,2.3c0.7,0.7,0.7,1.7,0,2.4c0,0,0,0,0,0
		c-0.3,0.3-0.8,0.5-1.2,0.5c-0.4,0-0.9-0.2-1.2-0.5l-3.8-3.8L130.4,19.8z M137.7,13.9c0-1.4-1.1-2.5-2.6-2.6h-4.7v5.1h4.7
		C136.5,16.4,137.6,15.3,137.7,13.9z"/>
	<path fill="#ABB5DD" d="M139.3,24.2c-0.5,0-1-0.2-1.3-0.5l-3.7-3.7h-3.8v2.4c0,1-0.7,1.9-1.8,1.9c-1,0-1.9-0.7-1.9-1.8
		c0,0,0-0.1,0-0.1V9.6c0-1,0.8-1.8,1.8-1.8h6.4c3.4,0,6.1,2.7,6.1,6.1c0,1-0.3,2.1-0.8,3c-0.5,0.8-1.1,1.5-1.9,2.1l2.1,2.1
		c0.7,0.7,0.7,1.9,0,2.6C140.3,24,139.8,24.2,139.3,24.2z M130.3,19.7h4.2l3.8,3.8c0.3,0.3,0.7,0.5,1.1,0.5c0.9,0,1.6-0.7,1.6-1.6
		c0,0,0,0,0,0c0-0.4-0.2-0.8-0.5-1.1l-2.4-2.4l0.1-0.1c0.8-0.5,1.5-1.2,2-2.1c0.5-0.9,0.7-1.8,0.7-2.8c0-3.2-2.6-5.8-5.8-5.8h-6.3
		c-0.9,0-1.6,0.7-1.6,1.6v12.7c0,0.9,0.6,1.6,1.5,1.6c0.9,0,1.6-0.6,1.6-1.5c0,0,0-0.1,0-0.1V19.7z M135.1,16.6h-4.8v-5.4h4.8
		c1.5,0,2.7,1.2,2.7,2.7c0,0.7-0.3,1.4-0.8,1.9C136.5,16.3,135.8,16.6,135.1,16.6z M130.6,16.3h4.5c0.6,0,1.3-0.2,1.7-0.7
		c0.9-0.9,0.9-2.5,0-3.4c-0.5-0.5-1.1-0.7-1.7-0.7h-4.5V16.3z"/>
	<path fill="#ABB5DD" d="M157.9,8.2c0.4,0.2,0.6,0.6,0.7,1.1c0.1,0.4,0,0.9-0.3,1.3l-3.6,5.4l3.6,5.4c0.3,0.4,0.4,0.8,0.3,1.3
		c-0.1,0.4-0.3,0.8-0.7,1.1c-0.3,0.2-0.6,0.3-0.9,0.3c-0.6,0-1.1-0.3-1.4-0.8l-3.7-5.6h-3.8v4.7c0,0.9-0.7,1.7-1.6,1.8
		c-0.9,0-1.7-0.7-1.8-1.6c0,0,0-0.1,0-0.1V9.6c0-0.9,0.8-1.7,1.8-1.6c0.9,0,1.6,0.7,1.6,1.6v4.7h3.8l3.7-5.6
		c0.2-0.4,0.6-0.6,1.1-0.7C157.1,7.9,157.5,8,157.9,8.2z"/>
	<path fill="#ABB5DD" d="M157,24.2c-0.6,0-1.2-0.3-1.5-0.8l-3.7-5.6h-3.6v4.5c0,1-0.7,1.9-1.8,1.9c-1,0-1.9-0.7-1.9-1.8
		c0,0,0-0.1,0-0.1V9.6c0-1,0.9-1.8,1.9-1.8c1,0,1.7,0.8,1.8,1.8v4.5h3.6l3.7-5.5c0.3-0.4,0.7-0.7,1.2-0.8c0.5-0.1,1,0,1.4,0.3l0,0
		c0.4,0.3,0.7,0.7,0.8,1.2c0.1,0.5,0,1-0.3,1.4l-3.6,5.4l3.6,5.3c0.6,0.8,0.3,2-0.5,2.5c0,0,0,0,0,0C157.7,24.1,157.3,24.2,157,24.2
		z M147.9,17.6h4l3.8,5.7c0.3,0.4,0.8,0.7,1.3,0.7c0.3,0,0.6-0.1,0.9-0.3c0.7-0.5,0.9-1.5,0.4-2.2l-3.7-5.5l0-0.1l3.6-5.4
		c0.2-0.3,0.3-0.8,0.2-1.2c-0.1-0.4-0.3-0.8-0.7-1c-0.3-0.2-0.8-0.3-1.2-0.2c-0.4,0.1-0.8,0.3-1,0.7l-3.8,5.7h-4V9.6
		c0-0.9-0.8-1.5-1.6-1.5c-0.8,0-1.5,0.7-1.5,1.5v12.7c0,0.9,0.6,1.6,1.5,1.6c0.9,0,1.6-0.6,1.6-1.5c0,0,0-0.1,0-0.1L147.9,17.6z"/>
	<path fill="#ABB5DD" d="M32.5,0.5C32.5,0.6,32.5,0.6,32.5,0.5c0.3,0,0.6,0,0.8,0c0.3,0,0.7,0.1,1,0.1c0.5,0.1,1,0.1,1.5,0.2
		c1.3,0.3,2.6,0.7,3.8,1.3c0.3,0.1,0.5,0.3,0.8,0.5c0.2,0.2,0.4,0.4,0.5,0.7c0.1,0.5-0.3,1.1-0.8,1.2c0,0,0,0,0,0
		c-0.3,0-0.6,0-0.8-0.2c-0.7-0.3-1.3-0.6-2-0.9c-0.7-0.3-1.4-0.4-2.1-0.6c-0.4-0.1-0.7-0.1-1.1-0.2c-0.3,0-0.6-0.1-0.9-0.1
		c-0.2,0-0.5,0-0.7,0c-0.4,0-0.8,0-1.2,0.1c-0.7,0.1-1.4,0.2-2,0.4c-0.1,0-0.1,0-0.2,0c0,0,0,0,0,0c-0.2,0-0.4,0-0.5,0
		c-0.3,0-0.6,0-0.9,0.1c-0.4,0-0.7,0.1-1,0.2C26,3.5,25.4,3.7,24.9,4c-0.5,0.2-0.9,0.4-1.3,0.7c-0.4,0.2-0.8,0.5-1.1,0.8
		c-0.3,0.3-0.7,0.6-1,0.9c-0.2,0.2-0.4,0.4-0.5,0.6c-0.2,0.3-0.5,0.6-0.7,0.9c-0.4,0.6-0.8,1.2-1.1,1.9c-0.2,0.5-0.4,1-0.5,1.6
		c-0.1,0.5-0.2,0.9-0.3,1.4c0,0.3-0.1,0.7-0.1,1c0,0.3,0,0.5,0,0.8c0,0.3,0,0.6,0.1,0.9c0,0.4,0.1,0.8,0.2,1.1
		c0.1,0.4,0.2,0.8,0.4,1.2c0.2,0.5,0.4,0.9,0.6,1.4c0,0,0,0.1,0.1,0.1c0,0.2,0.1,0.3,0.1,0.5c0.1,0.5,0.3,1,0.5,1.4
		c0.3,0.8,0.7,1.5,1.2,2.2c0.4,0.6,0.9,1.3,1.4,1.8c0.2,0.2,0.3,0.3,0.5,0.5c0.2,0.2,0.3,0.5,0.3,0.7c0,0.2-0.1,0.5-0.2,0.6
		c-0.4,0.4-1.1,0.5-1.5,0.1c0,0,0,0,0,0c-0.7-0.7-1.3-1.5-1.9-2.3c-0.5-0.7-0.9-1.4-1.2-2.2c-0.4-0.9-0.8-1.9-1-3
		c-0.1-0.4-0.2-0.9-0.3-1.3c0-0.4-0.1-0.7-0.1-1.1c0-0.2,0-0.3,0-0.5c0,0,0-0.1,0-0.1v-0.6c0,0,0-0.1,0-0.1c0-0.1,0-0.3,0-0.4
		c0-0.3,0-0.6,0.1-0.9c0-0.4,0.1-0.7,0.2-1.1c0.1-0.7,0.3-1.4,0.5-2c0.2-0.8,0.5-1.5,0.9-2.3c0.4-0.8,0.8-1.5,1.3-2.2
		c0.3-0.5,0.7-0.9,1.1-1.3c0.2-0.2,0.4-0.5,0.7-0.7c0.2-0.2,0.5-0.4,0.7-0.6c0.4-0.3,0.7-0.6,1.1-0.9C24.3,3,25,2.6,25.7,2.3
		c0.4-0.2,0.8-0.4,1.2-0.6c0.7-0.3,1.4-0.5,2.1-0.7c0.6-0.1,1.1-0.3,1.7-0.3c0.3,0,0.7-0.1,1-0.1c0.2,0,0.4,0,0.6,0c0,0,0.1,0,0.1,0
		L32.5,0.5z"/>
	<path fill="#ABB5DD" d="M33.3,25.5c0.9-0.1,1.8-0.2,2.6-0.5c0.5-0.2,1-0.4,1.4-0.6c0.4-0.3,0.9-0.3,1.2,0c0.2,0.2,0.4,0.4,0.4,0.7
		c0,0.4-0.2,0.9-0.6,1c-0.7,0.4-1.3,0.7-2,0.9c-0.6,0.2-1.3,0.4-1.9,0.5c-0.7,0.1-1.5,0.1-2.2,0.1c-0.7,0-1.4-0.1-2.1-0.3
		c-0.7-0.2-1.5-0.4-2.2-0.7c-0.8-0.4-1.6-0.8-2.3-1.4c-0.3-0.2-0.6-0.5-0.9-0.7c-1-0.9-1.7-1.9-2.3-3.1c-0.6-1.3-1.1-2.6-1.2-4.1
		c-0.1-0.5-0.1-1-0.1-1.5c0-0.6,0.1-1.2,0.2-1.8c0.2-1.2,0.6-2.3,1.2-3.3c0.1-0.3,0.3-0.5,0.5-0.7c0.5-0.3,1.1-0.1,1.4,0.4
		c0.1,0.1,0.1,0.2,0.1,0.4c0,0.3,0,0.6-0.2,0.9c-0.2,0.4-0.4,0.8-0.5,1.2c-0.2,0.5-0.3,1-0.5,1.5c-0.1,0.3-0.1,0.5-0.1,0.8
		c0,0.1,0,0.2,0,0.3c0,0-0.1,0-0.1,0.1c-0.1,0.1-0.1,0.3-0.2,0.4c-0.2,0.5-0.4,1-0.5,1.6c-0.1,0.4-0.1,0.8-0.1,1.1
		c0,0.4,0,0.7,0.1,1.1c0.1,1,0.5,2.1,1,3c0.3,0.5,0.7,1,1.1,1.5c0.2,0.2,0.4,0.4,0.6,0.6c0.4,0.3,0.8,0.6,1.3,0.9
		c0.6,0.3,1.2,0.6,1.9,0.7c0.5,0.1,1,0.2,1.5,0.2c0.2,0,0.4,0,0.7,0c0.3,0,0.5,0,0.8-0.1c0.6-0.1,1.3-0.3,1.8-0.6
		C33.2,25.6,33.3,25.5,33.3,25.5z"/>
	<path fill="#7A8EC7" d="M37.4,28.6c0.5-0.2,0.9-0.4,1.4-0.6c0.7-0.4,1.4-0.8,2-1.3c0.3-0.3,0.6-0.5,0.9-0.8
		c0.3-0.3,0.5-0.5,0.8-0.7c0.5-0.6,1-1.2,1.5-1.9c0.2-0.3,0.4-0.6,0.6-1c0.6-1.2,1.1-2.5,1.3-3.9c0.1-0.3,0.1-0.6,0.1-1
		c0-0.2,0.1-0.5,0.1-0.7c0,0,0,0,0,0c0,0,0.1,0,0.1,0.1c0.7,0.9,1.1,2,1.3,3.2c0,0,0,0.1,0.1,0.1c-0.2,0.6-0.3,1.1-0.6,1.7
		c-0.2,0.4-0.3,0.8-0.5,1.2c-0.4,0.8-0.9,1.5-1.4,2.3c-0.2,0.3-0.5,0.6-0.7,0.9c-0.3,0.4-0.7,0.7-1,1.1c-0.3,0.3-0.5,0.5-0.8,0.7
		c-0.4,0.3-0.9,0.7-1.3,1c0,0,0,0,0,0C40.8,29,40.5,29,40.3,29C39.3,29.1,38.4,28.9,37.4,28.6C37.4,28.6,37.4,28.6,37.4,28.6z"/>
	<path fill="#7A8EC7" d="M35.8,4.9c0.3,0.1,0.7,0.2,1,0.3c1,0.4,2,0.9,2.8,1.6c0.2,0.2,0.5,0.4,0.7,0.6c0.2,0.1,0.3,0.3,0.4,0.4
		C41,8,41.1,8.1,41.2,8.3c0.1,0.2,0.3,0.3,0.4,0.5c0,0,0.1,0.1,0.1,0.1c0,0,0,0.1,0,0.1c0.3,0.5,0.4,1.1,0.6,1.6
		c0.1,0.4,0.2,0.8,0.2,1.2c0,0.4,0,0.7,0,1.1c0,0.3-0.1,0.6-0.2,0.9c-0.1,0.3-0.1,0.5-0.2,0.8c-0.1-0.3-0.1-0.5-0.2-0.8
		c-0.1-0.5-0.3-1-0.5-1.4c-0.3-0.6-0.6-1.2-0.9-1.7c-0.2-0.3-0.4-0.5-0.6-0.8c-0.2-0.2-0.4-0.4-0.6-0.6c-0.3-0.2-0.5-0.5-0.8-0.7
		c-0.3-0.3-0.7-0.5-1.1-0.7c-0.3-0.2-0.7-0.4-1.1-0.5c-0.5-0.2-1-0.4-1.5-0.5c-0.3-0.1-0.5-0.1-0.8-0.1c-0.3,0-0.6-0.1-0.9-0.1
		c-0.2,0-0.4,0-0.6,0c-0.3,0-0.7,0-1,0.1c-0.3,0-0.7,0.1-1,0.2c0,0,0-0.1,0-0.1c0.1-0.1,0.2-0.2,0.4-0.3c0.3-0.2,0.6-0.4,1-0.6
		c0.4-0.2,0.8-0.4,1.3-0.6c0.5-0.2,1-0.3,1.5-0.3c0.4,0,0.7,0,1.1,0C35.7,4.9,35.8,4.9,35.8,4.9z"/>
	<path fill="#7A8EC7" d="M19.6,19.1C19.6,19.1,19.6,19,19.6,19.1c-0.3-0.5-0.5-0.9-0.7-1.4c-0.2-0.4-0.3-0.8-0.4-1.3
		c-0.1-0.4-0.2-0.8-0.2-1.2c0-0.3-0.1-0.6-0.1-0.9c0-0.3,0-0.5,0-0.8c0-0.3,0-0.7,0.1-1c0.1-0.5,0.1-0.9,0.3-1.4
		c0.1-0.5,0.3-1.1,0.5-1.6c0.3-0.7,0.6-1.3,1.1-1.9c0.2-0.3,0.4-0.6,0.7-0.9c0.2-0.2,0.4-0.4,0.5-0.6c0.3-0.3,0.6-0.6,1-0.9
		c0.4-0.3,0.7-0.5,1.1-0.8c0.4-0.3,0.9-0.5,1.3-0.7c0.6-0.2,1.2-0.4,1.8-0.6c0.3-0.1,0.7-0.1,1-0.2c0.3,0,0.6-0.1,0.9-0.1
		c0.2,0,0.4,0,0.5,0c0,0,0,0,0,0c-0.3,0.1-0.6,0.2-0.9,0.3c-0.4,0.1-0.8,0.3-1.2,0.5c-0.7,0.3-1.4,0.7-2,1.1
		c-0.3,0.2-0.6,0.4-0.9,0.7c-0.4,0.3-0.8,0.7-1.1,1c-0.4,0.4-0.8,0.9-1.1,1.4c-0.5,0.6-0.9,1.3-1.2,2c-0.2,0.4-0.4,0.9-0.5,1.3
		c-0.2,0.5-0.3,1-0.5,1.6c-0.1,0.4-0.2,0.7-0.2,1.1c-0.1,0.3-0.1,0.7-0.1,1c0,0.1,0,0.2,0,0.3c0,0.4,0,0.8,0,1.2
		c0,0.3,0,0.6,0.1,0.9C19.4,18.1,19.5,18.6,19.6,19.1z"/>
	<path fill="#7A8EC7" d="M33.3,25.5c0,0.1-0.1,0.1-0.2,0.1c-0.6,0.3-1.2,0.4-1.8,0.6c-0.3,0-0.5,0.1-0.8,0.1c-0.2,0-0.4,0-0.7,0
		c-0.5,0-1-0.1-1.5-0.2c-0.7-0.1-1.3-0.4-1.9-0.7c-0.4-0.2-0.9-0.5-1.3-0.8c-0.2-0.2-0.4-0.4-0.6-0.6c-0.4-0.5-0.8-1-1.1-1.5
		c-0.5-0.9-0.9-1.9-1-3c0-0.3-0.1-0.7-0.1-1.1c0-0.4,0.1-0.8,0.1-1.1c0.1-0.5,0.3-1.1,0.5-1.6c0.1-0.1,0.1-0.3,0.2-0.4
		c0,0,0-0.1,0.1-0.1c0,0.2,0,0.5,0,0.7c0,0.2,0,0.4,0,0.6c0,0.2,0,0.3,0,0.5c0,0.3,0.1,0.6,0.1,0.8c0.1,0.5,0.2,0.9,0.4,1.4
		c0.2,0.6,0.5,1.1,0.8,1.7c0.2,0.4,0.5,0.8,0.8,1.1c0.2,0.3,0.5,0.6,0.8,0.9c0.4,0.4,0.9,0.8,1.4,1.1c0.5,0.3,0.9,0.5,1.4,0.7
		c0.5,0.2,0.9,0.4,1.4,0.5c0.3,0.1,0.7,0.1,1,0.2c0.5,0.1,1.1,0.1,1.6,0.1C33.2,25.5,33.2,25.4,33.3,25.5z"/>
	<path fill="#7A8EC7" d="M33,10.5h-0.5c-0.5,0-1,0.1-1.4,0.2c-0.3,0.1-0.7,0.2-1,0.4c-0.4,0.2-0.7,0.4-1,0.7
		c-0.4,0.3-0.8,0.8-1.1,1.2c-0.4,0.6-0.7,1.3-0.8,2c0,0.2-0.1,0.5-0.1,0.7c0,0.2,0,0.4,0,0.6c0,0.7,0.2,1.5,0.5,2.1
		c-0.1,0-0.2-0.1-0.2-0.1c-0.4-0.3-0.7-0.6-1-1c-0.4-0.5-0.6-1-0.8-1.6c-0.1-0.4-0.2-0.8-0.2-1.2c0-0.1,0-0.3,0-0.4s0-0.2,0-0.4
		s0.1-0.2,0-0.2c0.1-0.2,0.2-0.4,0.3-0.7c0.2-0.4,0.4-0.8,0.7-1.2c0.2-0.3,0.4-0.6,0.7-0.9c0.1-0.2,0.3-0.3,0.4-0.4
		c0.1,0,0.1,0,0.2-0.1c0.4-0.2,0.8-0.4,1.2-0.5c0.4-0.1,0.8-0.2,1.2-0.2c0.2,0,0.4,0,0.5,0c0.2,0,0.5,0.1,0.7,0.1
		c0.5,0.1,1,0.3,1.5,0.6C32.9,10.4,33,10.4,33,10.5z"/>
	<path fill="#7A8EC7" d="M33.2,21.5c0.5,0,1.1-0.1,1.5-0.3c0.5-0.2,0.9-0.5,1.3-0.8c0.4-0.3,0.7-0.6,1-0.9c0.3-0.3,0.5-0.7,0.7-1.1
		c0.2-0.4,0.3-0.9,0.4-1.3c0.1-0.4,0.1-0.9,0.1-1.3c0-0.2,0-0.4-0.1-0.6c0,0,0.1,0,0.1,0.1c0.9,0.6,1.5,1.6,1.6,2.6
		c0,0.1,0,0.3,0.1,0.4c-0.1,0.3-0.2,0.5-0.3,0.8c-0.2,0.5-0.5,1-0.8,1.4c-0.2,0.3-0.4,0.6-0.7,0.8c-0.4,0.5-0.9,0.9-1.4,1.2
		c-0.1,0.1-0.2,0.2-0.4,0.2c0,0-0.1,0-0.1,0c-0.2,0-0.5,0-0.7,0c-0.3,0-0.7-0.1-1-0.2c-0.5-0.2-0.9-0.4-1.3-0.7
		C33.3,21.7,33.2,21.6,33.2,21.5z"/>
	<path fill="#ABB5DD" d="M42,14.5c0.1-0.3,0.2-0.5,0.2-0.8c0.1-0.3,0.1-0.6,0.2-0.9c0-0.4,0.1-0.7,0-1.1c0-0.4-0.1-0.8-0.2-1.2
		C42.2,10,42,9.4,41.7,8.9c0,0,0-0.1,0-0.1C41.9,9,42,9.2,42.1,9.4c0.3,0.5,0.6,1,0.9,1.5c0.4,0.9,0.7,1.9,0.9,2.8
		c0.1,0.5,0.2,1,0.2,1.5c0,0.3,0,0.7,0,1c0,0.8-0.1,1.5-0.3,2.3c0,0.3-0.1,0.5-0.3,0.8c-0.2,0.3-0.6,0.5-1,0.4
		c-0.4-0.1-0.7-0.4-0.8-0.8c0-0.2,0-0.4,0-0.6c0.1-0.4,0.2-0.9,0.2-1.3c0-0.2,0-0.5,0-0.7c0-0.1,0-0.2,0-0.4c0-0.3,0-0.7-0.1-1
		C42.1,14.8,42.1,14.7,42,14.5z"/>
	<path fill="#ABB5DD" d="M37.4,28.6C37.4,28.6,37.4,28.6,37.4,28.6c1,0.4,1.9,0.5,2.9,0.5c0.3,0,0.6,0,0.9-0.1
		c-0.2,0.1-0.3,0.2-0.5,0.3c-0.4,0.3-0.9,0.5-1.3,0.7c-0.8,0.4-1.6,0.7-2.5,0.9c-0.6,0.2-1.1,0.3-1.7,0.4c-0.4,0.1-0.8,0.1-1.2,0.1
		c-0.4,0-0.8,0.1-1.2,0.1c-0.3,0-0.6-0.1-0.8-0.3c-0.1-0.1-0.2-0.3-0.3-0.5c0-0.3,0-0.5,0.1-0.7c0.2-0.2,0.4-0.4,0.7-0.4
		c0.4-0.1,0.9-0.1,1.3-0.1c0.6,0,1.2-0.1,1.8-0.3c0.5-0.1,1-0.2,1.4-0.4L37.4,28.6z"/>
	<path fill="#ABB5DD" d="M47.5,20.1c-0.1,0,0-0.1-0.1-0.1c-0.2-1.1-0.7-2.2-1.3-3.2c0,0-0.1-0.1-0.1-0.1c0-0.3,0-0.6,0-0.9
		c0-0.4,0-0.7-0.1-1.1c-0.1-0.8-0.2-1.5-0.4-2.3c-0.1-0.3,0-0.7,0.2-0.9c0.2-0.3,0.6-0.4,1-0.4c0.4,0,0.7,0.3,0.8,0.7
		c0.2,0.5,0.3,1,0.4,1.6c0.1,0.3,0.1,0.7,0.1,1c0.1,0.6,0.1,1.3,0.1,1.9c0,0.3,0,0.7-0.1,1s-0.1,0.6-0.1,0.9
		c-0.1,0.4-0.1,0.7-0.2,1.1C47.7,19.7,47.6,19.9,47.5,20.1z"/>
	<path fill="#ABB5DD" d="M35.8,4.9c0,0-0.1,0-0.1,0c-0.4,0-0.7,0-1.1,0c-0.5,0-1,0.2-1.5,0.3c-0.4,0.1-0.9,0.3-1.3,0.6
		c-0.3,0.2-0.7,0.4-1,0.6c-0.1,0.1-0.3,0.2-0.4,0.3c0,0,0,0.1,0,0.1c-0.3,0.1-0.6,0.2-0.9,0.3c-0.3,0.1-0.6,0.2-1,0.4l-0.7,0.3
		c-0.5,0.3-1.1,0.1-1.4-0.5c-0.2-0.5-0.1-1,0.3-1.3c0.4-0.2,0.7-0.5,1.1-0.6c0.6-0.3,1.3-0.5,1.9-0.6c0.5-0.1,1.1-0.2,1.6-0.3
		c0.5-0.1,1.1-0.1,1.6-0.1c0.3,0,0.6,0,0.9,0.1c0.4,0,0.8,0.1,1.2,0.2C35.4,4.8,35.6,4.8,35.8,4.9z"/>
	<path fill="#ABB5DD" d="M33,10.5c0-0.1-0.1-0.1-0.1-0.1c-0.5-0.3-1-0.5-1.5-0.6c-0.2-0.1-0.5-0.1-0.7-0.1c-0.2,0-0.4,0-0.5,0
		c-0.4,0-0.8,0.1-1.2,0.2c-0.4,0.1-0.8,0.3-1.2,0.5c-0.1,0-0.1,0.1-0.2,0.1c0.1-0.1,0.3-0.3,0.4-0.4c0.5-0.4,0.9-0.7,1.5-0.9
		c0.6-0.3,1.2-0.5,1.8-0.6c0.6-0.1,1.2-0.2,1.8-0.1c0.5,0,1,0.1,1.5,0.2c0.4,0.1,0.7,0.4,0.8,0.8c0.1,0.5-0.3,1.1-0.8,1.2
		c-0.2,0-0.5,0-0.7,0C33.6,10.6,33.4,10.5,33,10.5C33.1,10.5,33,10.5,33,10.5z"/>
	<path fill="#ABB5DD" d="M25.5,13.5c0.1,0.1,0,0.2,0,0.2c0,0.1,0,0.2,0,0.4s0,0.3,0,0.4c0,0.4,0.1,0.8,0.2,1.2
		c0.2,0.6,0.4,1.1,0.8,1.6c0.3,0.4,0.6,0.7,1,1c0.1,0.1,0.1,0.1,0.2,0.1c0.1,0.2,0.2,0.4,0.3,0.6c0.1,0.3,0,0.6-0.2,0.9
		c-0.3,0.5-1,0.6-1.4,0.3c-0.2-0.1-0.3-0.3-0.4-0.5c-0.4-0.7-0.7-1.5-0.8-2.3c-0.1-0.6-0.1-1.2-0.1-1.8c0-0.4,0.1-0.9,0.2-1.3
		C25.3,14.1,25.4,13.8,25.5,13.5C25.5,13.5,25.5,13.5,25.5,13.5z"/>
	<path fill="#ABB5DD" d="M40,18.2c0-0.1-0.1-0.2-0.1-0.4c-0.2-1.1-0.8-2-1.6-2.6c0,0-0.1-0.1-0.1-0.1c-0.1-0.3-0.1-0.6-0.1-0.9
		c0-0.6,0.5-1,1-1c0.5,0,0.9,0.3,1,0.8c0.1,0.5,0.2,0.9,0.2,1.4c0,0.3,0,0.6,0,0.9C40.3,17,40.2,17.6,40,18.2
		C40,18.2,40,18.2,40,18.2z"/>
	<path fill="#ABB5DD" d="M33.2,21.5c0.1,0.1,0.1,0.2,0.2,0.2c0.4,0.3,0.8,0.5,1.3,0.7c0.3,0.1,0.7,0.2,1,0.2c0.2,0,0.5,0,0.7,0
		c0,0,0.1,0,0.1,0c-0.1,0.1-0.2,0.1-0.3,0.2c-0.2,0.1-0.5,0.2-0.7,0.3c-0.5,0.2-1.1,0.3-1.6,0.4c-0.3,0.1-0.6,0.1-0.9,0.1
		c-0.3,0-0.6-0.1-0.8-0.3c-0.2-0.2-0.3-0.4-0.3-0.6c0-0.3,0-0.6,0.2-0.8c0.2-0.2,0.4-0.3,0.7-0.4C32.8,21.5,33,21.5,33.2,21.5z"/>
</g>
</svg>
